<svg xmlns="http://www.w3.org/2000/svg" xmlns:xlink="http://www.w3.org/1999/xlink" width="181.2" height="3071.779" viewBox="0 0 181.2 3071.779">
  <defs>
    <clipPath id="clip-path">
      <rect x="107" y="58" width="181.2" height="3071.779" fill="none"/>
    </clipPath>
  </defs>
  <g id="Group_54484" data-name="Group 54484" transform="translate(-1184.8 -1481.721)">
    <g id="Scroll_Group_4" data-name="Scroll Group 4" transform="translate(1077.8 1423.721)" clip-path="url(#clip-path)" style="isolation: isolate">
      <g id="Group_59" data-name="Group 59" transform="translate(-399 -659.552)">
        <g id="Group_58" data-name="Group 58" transform="translate(-678.899 726)">
          <g id="Group_57" data-name="Group 57">
            <path id="Union_4" data-name="Union 4" d="M68.3,937.184a1.2,1.2,0,0,1,.367-1.266,11.058,11.058,0,0,1,1.166-1.043c33.731-22.5,69.836-43.834,82.511-85.073q1.062-3.294,2.165-6.579a20.613,20.613,0,0,1,1.983-4.082c3.307-5.157,8.166-.041,10,3.464,5.075,8.866,13.649,21.1,23.127,25.431A25.273,25.273,0,0,0,207,869.342a15.169,15.169,0,0,0,6.02-2.292,42.667,42.667,0,0,0,9.559-5.931A115.634,115.634,0,0,0,243.9,838.861a49.512,49.512,0,0,1,15.322-15.195c.694-.3,1.1-.682.63-1.517-5.518-10.3.752-21.774,6.247-30.668.671-1.057,1.219-1.044,1.884-.041a3.294,3.294,0,0,1,.409.9,19.873,19.873,0,0,0,10.6,11.97c7.343,4.31,16.477,5.021,23.1,10.627a9.591,9.591,0,0,1,3.413,8.843,40.5,40.5,0,0,1-13.3,25.609,3.09,3.09,0,0,1-3.827.736,52.453,52.453,0,0,0-25.886-4.276,27.149,27.149,0,0,0-16.331,13.415c-3.395,4.877-6.458,9.987-10.08,14.711a69.758,69.758,0,0,1-12.9,13.134c-.458.349-1.292.479-1.075,1.359-.7-.211-1.186-.094-1.155.753-.558-.293-.966.111-1.38.378a33.717,33.717,0,0,1-36.327-.193,91.67,91.67,0,0,1-12.3-11.171,45.035,45.035,0,0,0-7.992-6.77c-3.079-1.967-4.45-1.512-5.908,1.883s-2.369,7-3.5,10.5c-8.061,27.945-33.924,42.434-60.9,47.748a89.2,89.2,0,0,0-20.566,5.517,5.36,5.36,0,0,1-2.444.719C69.122,937.832,68.515,937.832,68.3,937.184ZM1.716,861.756c-1.511-30.809,12.8-59.039,33.917-80.726a27.57,27.57,0,0,1,3.307-2.836A4,4,0,0,1,41.1,777.3c2.8-.157,1.75,2.182.444,3.447-16.128,18.554-30.8,41.512-29.345,67.043.834,20.813,13.923,36.7,35.47,36.707,25.816-.356,50.325-19.289,64.639-39.518,5.874-8.5,11.852-20.846,4.789-30.365-4.73-6.119-14.413-9.164-21.692-11.024a47.047,47.047,0,0,1-13.334-4.859c-10.7-6-11.252-19.108-8.6-29.788a139.545,139.545,0,0,1,4.918-16.916,62.058,62.058,0,0,1,10.913-18.514c8.783-10.5,20.415-21.417,33.988-24.853a8.166,8.166,0,0,1,9.805,3.57c5.091,9.023-1.628,24.994-2.567,34.9-.082.734-.152,1.837-1.085,1.907-1.167.088-1.167-1.079-1.307-1.878a65.717,65.717,0,0,1-.683-8.073,11.728,11.728,0,0,0-1.1-4.783,3.768,3.768,0,0,0-4.508-2.334,31.84,31.84,0,0,0-11.422,4.824A85.038,85.038,0,0,0,83.813,761a7.478,7.478,0,0,0,2.764,11.427,31.9,31.9,0,0,0,9.6,2.986,105.942,105.942,0,0,1,16.116,3.984c16.588,6.095,17.434,21.936,15.678,37.166-.449,4.129-.927,8.259-1.329,12.395A97.091,97.091,0,0,1,72.976,908.11a59.26,59.26,0,0,1-25.134,6.032C21.733,914.143,2.424,893.087,1.716,861.756Zm219.225,27.465.049.027-.047.023C220.943,889.254,220.942,889.238,220.941,889.221Zm1.155-.753.013,0v.047C222.105,888.5,222.1,888.485,222.1,888.468ZM196.94,839.886q-3.9-11.6-6.943-15.03h-.95L187.619,826h-.857q-2.854,0-6.373-5.517v-.572q2.947-6.086,4.66-7.23h.571q9.512,0,14.174,21.688v.286h.285q4.089-25.777,11.605-25.779,2.568,0,5.517,5.233a2.841,2.841,0,0,1,.285,1.426v.571q-1.048,5.234-2.283,5.232-.381,0-3.8-3.519l-1.427-.572q-3.806,0-7.515,22.354-2.473,6.946-3.8,6.944Q197.8,846.544,196.94,839.886Zm3.206-44.7q12.33-5.328,40.733-16.856,11.43-4.4,31.74-11.746l-1.094,6.056q-9.729,3.432-31.74,11.744-14.773,5.762-40.846,16.845Zm4.751-27.833a1.2,1.2,0,0,1,.367-1.266,10.98,10.98,0,0,1,1.166-1.044c33.731-22.5,69.836-43.834,82.511-85.072q1.061-3.294,2.164-6.58a20.7,20.7,0,0,1,1.983-4.081c3.308-5.157,8.167-.041,10,3.463,5.075,8.867,13.649,21.1,23.127,25.432a25.272,25.272,0,0,0,17.388,1.3,15.145,15.145,0,0,0,6.019-2.291,42.67,42.67,0,0,0,9.56-5.931,115.641,115.641,0,0,0,21.314-22.259,49.5,49.5,0,0,1,15.323-15.195c.694-.3,1.1-.681.629-1.516-5.517-10.3.753-21.775,6.247-30.669.671-1.056,1.219-1.044,1.885-.04a3.279,3.279,0,0,1,.408.9,19.874,19.874,0,0,0,10.6,11.969c7.344,4.31,16.478,5.022,23.1,10.627a9.593,9.593,0,0,1,3.413,8.843,40.5,40.5,0,0,1-13.306,25.61,3.091,3.091,0,0,1-3.826.736,52.443,52.443,0,0,0-25.886-4.276,27.152,27.152,0,0,0-16.332,13.414c-3.395,4.878-6.457,9.987-10.079,14.711a69.74,69.74,0,0,1-12.9,13.135c-.458.349-1.291.479-1.075,1.359-.7-.212-1.186-.094-1.155.753-.558-.293-.966.11-1.38.377a33.719,33.719,0,0,1-36.328-.193,91.608,91.608,0,0,1-12.3-11.171,45.041,45.041,0,0,0-7.992-6.771c-3.08-1.966-4.451-1.511-5.909,1.884s-2.368,7-3.5,10.5c-8.061,27.945-33.924,42.434-60.9,47.748a89.2,89.2,0,0,0-20.566,5.517,5.372,5.372,0,0,1-2.444.719C205.718,768,205.112,768,204.9,767.353Zm-66.584-75.428c-1.51-30.809,12.8-59.039,33.918-80.725a27.506,27.506,0,0,1,3.308-2.836,4,4,0,0,1,2.164-.891c2.8-.157,1.75,2.182.443,3.447-16.128,18.554-30.8,41.512-29.345,67.042.834,20.813,13.923,36.7,35.469,36.707,25.816-.355,50.326-19.289,64.64-39.517,5.873-8.5,11.852-20.846,4.789-30.366-4.73-6.118-14.413-9.163-21.693-11.024a47.053,47.053,0,0,1-13.334-4.858c-10.7-6-11.251-19.109-8.6-29.789a139.527,139.527,0,0,1,4.917-16.915A62.075,62.075,0,0,1,225.9,563.685c8.784-10.5,20.415-21.417,33.988-24.854a8.165,8.165,0,0,1,9.8,3.57c5.092,9.023-1.627,24.993-2.567,34.9-.082.734-.151,1.837-1.085,1.907-1.166.087-1.166-1.079-1.307-1.878a65.9,65.9,0,0,1-.682-8.074,11.738,11.738,0,0,0-1.1-4.782,3.769,3.769,0,0,0-4.509-2.334,31.837,31.837,0,0,0-11.421,4.824,85.014,85.014,0,0,0-26.614,24.2,7.478,7.478,0,0,0,2.764,11.428,31.888,31.888,0,0,0,9.6,2.985,106.139,106.139,0,0,1,16.115,3.984c16.589,6.1,17.435,21.937,15.679,37.166-.449,4.13-.928,8.26-1.33,12.395a97.09,97.09,0,0,1-53.662,79.151,59.259,59.259,0,0,1-25.134,6.032C158.331,744.311,139.021,723.254,138.313,691.924Zm219.226,27.465.049.027-.047.023C357.54,719.422,357.539,719.406,357.539,719.389Zm1.155-.753.013,0v.047C358.7,718.67,358.7,718.653,358.694,718.636ZM173.225,687.962q-4.506,0-6.3-5.941a29.462,29.462,0,0,1-.361-3.963V673.2q0-14.4,10.805-32.954h.72q-7.023,22.33-7.023,28.452,0,9.365,4.681,9.365,3.421,0,7.384-8.284h.36l.54.722q-3.243,17.466-9.365,17.466ZM280.34,654.524l-1.392-.073q-4.891-1.143-4.441-9.752l.047-.886q.4-7.594,7.871-24.209a48.559,48.559,0,0,0,.964-6.3l.106-2.025q.617-11.769-10.911-24.305l.021-.38a27.794,27.794,0,0,1,3.73-5.77l.38.021q11.522,10.122,10.651,26.831l-.093,1.771q-.452,8.61-8.242,26.475l-.831,3.764q-.378,7.214,3.417,7.414,2.53.134,5.781-6.17l.887.046q-3.081,13.553-7.772,13.551C280.455,654.529,280.4,654.527,280.34,654.524ZM192.758,600.3c3.528-5.788,8.935-8.514,8.035-11.249a3.013,3.013,0,0,0-1.607-1.606c-3.819-1.958-9.811,2.743-12.857,4.82-10.885,7.419-25.546,9.542-35.355,8.035-8.723-1.34-19.241-6.413-19.284-6.428a24.108,24.108,0,0,1,0,8.035c-.454,2.586-1.607,6.425-1.607,6.428a51.281,51.281,0,0,0-7.656-19.668,5.307,5.307,0,0,1,.031-5.856l.032-.049a2.041,2.041,0,0,1,2.85-.565,59.51,59.51,0,0,0,9.563,5.247,53.774,53.774,0,0,0,20.892,4.82c11.4.108,20.851-4.208,25.713-6.428,7.921-3.621,12.932-8.112,19.283-6.428.984.26,3.576.985,4.821,3.214,1.964,3.515-.818,8.286-1.607,9.642-2.243,3.845-4.368,4.332-8.035,8.035a31.341,31.341,0,0,0-6.428,9.643A23.637,23.637,0,0,1,192.758,600.3ZM68.3,585.247a1.2,1.2,0,0,1,.367-1.266,11.065,11.065,0,0,1,1.166-1.043c33.731-22.5,69.836-43.834,82.511-85.072q1.062-3.294,2.165-6.579a20.613,20.613,0,0,1,1.983-4.082c3.307-5.157,8.166-.041,10,3.464,5.075,8.866,13.649,21.1,23.127,25.431A25.267,25.267,0,0,0,207,517.4a15.154,15.154,0,0,0,6.02-2.291,42.666,42.666,0,0,0,9.559-5.931A115.635,115.635,0,0,0,243.9,486.923a49.513,49.513,0,0,1,15.322-15.195c.694-.3,1.1-.682.63-1.517-5.518-10.3.752-21.774,6.247-30.668.671-1.057,1.219-1.045,1.884-.041a3.294,3.294,0,0,1,.409.9,19.873,19.873,0,0,0,10.6,11.97c7.343,4.31,16.477,5.021,23.1,10.626a9.593,9.593,0,0,1,3.413,8.843,40.5,40.5,0,0,1-13.3,25.61,3.091,3.091,0,0,1-3.827.736,52.452,52.452,0,0,0-25.886-4.276,27.149,27.149,0,0,0-16.331,13.415c-3.395,4.877-6.458,9.986-10.08,14.711a69.735,69.735,0,0,1-12.9,13.135c-.458.349-1.292.479-1.075,1.359-.7-.211-1.186-.094-1.155.753-.558-.293-.966.11-1.38.377a33.717,33.717,0,0,1-36.327-.193,91.667,91.667,0,0,1-12.3-11.171,45.042,45.042,0,0,0-7.992-6.771c-3.079-1.966-4.45-1.511-5.908,1.884s-2.369,7-3.5,10.5c-8.061,27.945-33.924,42.434-60.9,47.748a89.2,89.2,0,0,0-20.566,5.517,5.372,5.372,0,0,1-2.444.719C69.122,585.894,68.515,585.894,68.3,585.247ZM1.716,509.819c-1.511-30.809,12.8-59.039,33.917-80.725a27.579,27.579,0,0,1,3.307-2.836,4,4,0,0,1,2.164-.891c2.8-.158,1.75,2.182.444,3.447-16.128,18.554-30.8,41.512-29.345,67.043.834,20.813,13.923,36.7,35.47,36.707,25.816-.356,50.325-19.289,64.639-39.517,5.874-8.5,11.852-20.846,4.789-30.365-4.73-6.119-14.413-9.164-21.692-11.024A47.074,47.074,0,0,1,82.075,446.8c-10.7-6-11.252-19.108-8.6-29.788a139.546,139.546,0,0,1,4.918-16.915,62.057,62.057,0,0,1,10.913-18.514c8.783-10.5,20.415-21.417,33.988-24.854a8.166,8.166,0,0,1,9.805,3.57c5.091,9.023-1.628,24.994-2.567,34.9-.082.734-.152,1.837-1.085,1.907-1.167.087-1.167-1.079-1.307-1.878a65.73,65.73,0,0,1-.683-8.074,11.724,11.724,0,0,0-1.1-4.782,3.768,3.768,0,0,0-4.508-2.334,31.841,31.841,0,0,0-11.422,4.824,85.045,85.045,0,0,0-26.614,24.2,7.478,7.478,0,0,0,2.764,11.428,31.9,31.9,0,0,0,9.6,2.986,106.036,106.036,0,0,1,16.116,3.983c16.588,6.1,17.434,21.937,15.678,37.166-.449,4.129-.927,8.259-1.329,12.394a97.091,97.091,0,0,1-53.662,79.151A59.26,59.26,0,0,1,47.842,562.2C21.733,562.2,2.424,541.149,1.716,509.819Zm219.225,27.465.049.027-.047.023C220.943,537.316,220.942,537.3,220.941,537.283Zm1.155-.753.013,0v.047C222.105,536.564,222.1,536.547,222.1,536.53ZM196.94,487.949q-3.9-11.6-6.943-15.03h-.95l-1.426,1.142h-.857q-2.854,0-6.373-5.517v-.572q2.947-6.086,4.66-7.23h.571q9.512,0,14.174,21.688v.286h.285q4.089-25.778,11.605-25.779,2.568,0,5.517,5.233a2.838,2.838,0,0,1,.285,1.426v.571Q216.44,469.4,215.2,469.4q-.381,0-3.8-3.519l-1.427-.572q-3.806,0-7.515,22.354-2.473,6.946-3.8,6.944Q197.8,494.607,196.94,487.949Zm3.206-44.7q12.33-5.328,40.733-16.856,11.43-4.4,31.74-11.746l-1.094,6.056q-9.729,3.432-31.74,11.744-14.773,5.76-40.846,16.845ZM204.9,412.2a1.2,1.2,0,0,1,.367-1.265,10.973,10.973,0,0,1,1.166-1.044c33.731-22.5,69.836-43.835,82.511-85.073q1.061-3.294,2.164-6.579a20.681,20.681,0,0,1,1.983-4.082c3.308-5.157,8.167-.041,10,3.463,5.075,8.867,13.649,21.1,23.127,25.431a25.272,25.272,0,0,0,17.388,1.306,15.159,15.159,0,0,0,6.019-2.291,42.708,42.708,0,0,0,9.56-5.932,115.661,115.661,0,0,0,21.314-22.258,49.5,49.5,0,0,1,15.323-15.195c.694-.3,1.1-.682.629-1.516-5.517-10.3.753-21.775,6.247-30.669.671-1.056,1.219-1.044,1.885-.04a3.274,3.274,0,0,1,.408.9,19.876,19.876,0,0,0,10.6,11.97c7.344,4.31,16.478,5.022,23.1,10.627a9.591,9.591,0,0,1,3.413,8.843,40.5,40.5,0,0,1-13.306,25.61,3.089,3.089,0,0,1-3.826.735,52.462,52.462,0,0,0-25.886-4.276,27.15,27.15,0,0,0-16.332,13.415c-3.395,4.878-6.457,9.987-10.079,14.711a69.735,69.735,0,0,1-12.9,13.134c-.458.349-1.291.479-1.074,1.36-.7-.212-1.186-.094-1.155.752-.558-.293-.966.111-1.38.378a33.721,33.721,0,0,1-36.328-.193,91.726,91.726,0,0,1-12.3-11.171,45.04,45.04,0,0,0-7.992-6.771c-3.08-1.966-4.451-1.512-5.909,1.884s-2.368,7-3.5,10.5c-8.061,27.945-33.924,42.434-60.9,47.748a89.244,89.244,0,0,0-20.566,5.518,5.383,5.383,0,0,1-2.444.719C205.718,412.847,205.112,412.847,204.9,412.2Zm-66.584-75.428c-1.51-30.808,12.8-59.039,33.918-80.725a27.58,27.58,0,0,1,3.308-2.835,3.983,3.983,0,0,1,2.164-.891c2.8-.158,1.75,2.181.443,3.446-16.128,18.554-30.8,41.513-29.345,67.043.834,20.813,13.923,36.7,35.469,36.707,25.816-.356,50.326-19.289,64.64-39.517,5.873-8.5,11.852-20.847,4.789-30.366-4.73-6.118-14.413-9.164-21.693-11.024a47.057,47.057,0,0,1-13.334-4.859c-10.7-6-11.251-19.108-8.6-29.788a139.542,139.542,0,0,1,4.917-16.916A62.06,62.06,0,0,1,225.9,208.534c8.784-10.5,20.415-21.418,33.988-24.854a8.165,8.165,0,0,1,9.8,3.569c5.092,9.023-1.627,24.994-2.567,34.9-.082.734-.151,1.837-1.085,1.907-1.166.088-1.166-1.079-1.307-1.878a65.889,65.889,0,0,1-.682-8.073,11.735,11.735,0,0,0-1.1-4.782,3.769,3.769,0,0,0-4.509-2.335,31.852,31.852,0,0,0-11.421,4.824,85.029,85.029,0,0,0-26.614,24.2,7.477,7.477,0,0,0,2.764,11.427,31.889,31.889,0,0,0,9.6,2.986,106.031,106.031,0,0,1,16.115,3.984c16.589,6.095,17.435,21.937,15.679,37.165-.449,4.13-.928,8.259-1.33,12.395a97.09,97.09,0,0,1-53.662,79.151,59.262,59.262,0,0,1-25.134,6.033C158.33,389.159,139.021,368.1,138.313,336.772Zm219.226,27.465.049.027-.047.022C357.54,364.27,357.539,364.253,357.539,364.237Zm1.155-.752.013,0v.047Q358.7,363.509,358.694,363.484Zm-185.469-27.46q-4.506,0-6.3-5.941a29.461,29.461,0,0,1-.361-3.963v-4.862q0-14.4,10.805-32.955h.72q-7.023,22.332-7.023,28.453,0,9.365,4.681,9.365,3.421,0,7.384-8.285h.36l.54.722q-3.243,17.466-9.365,17.466ZM280.34,300.979l-1.392-.073q-4.891-1.143-4.441-9.752l.047-.886q.4-7.594,7.871-24.209a48.573,48.573,0,0,0,.964-6.3l.106-2.026q.617-11.769-10.911-24.305l.021-.379a27.767,27.767,0,0,1,3.73-5.77l.38.02q11.522,10.122,10.651,26.831l-.093,1.771q-.452,8.61-8.242,26.475l-.831,3.765q-.378,7.213,3.417,7.414,2.53.132,5.781-6.171l.887.047q-3.081,13.551-7.772,13.55C280.455,300.983,280.4,300.982,280.34,300.979Zm-89.188-52.621c3.527-5.788,8.935-8.514,8.035-11.249a3.017,3.017,0,0,0-1.607-1.607c-3.818-1.958-9.811,2.743-12.856,4.82-10.885,7.419-25.547,9.541-35.355,8.035-8.723-1.34-19.241-6.413-19.284-6.428a24.157,24.157,0,0,1,0,8.035c-.454,2.586-1.607,6.425-1.607,6.428a51.294,51.294,0,0,0-7.656-19.669,5.309,5.309,0,0,1,.031-5.855l.032-.049a2.042,2.042,0,0,1,2.851-.565A59.472,59.472,0,0,0,133.3,235.5a53.763,53.763,0,0,0,20.891,4.82c11.4.108,20.851-4.208,25.713-6.428,7.921-3.621,12.933-8.113,19.284-6.428.984.26,3.575.985,4.821,3.214,1.963,3.515-.818,8.285-1.607,9.642-2.244,3.844-4.368,4.331-8.035,8.035A31.309,31.309,0,0,0,187.938,258,23.61,23.61,0,0,1,191.152,248.358ZM66.692,229a1.2,1.2,0,0,1,.368-1.265,10.955,10.955,0,0,1,1.166-1.044c33.732-22.5,69.837-43.835,82.512-85.072q1.061-3.294,2.164-6.579a20.663,20.663,0,0,1,1.983-4.082c3.308-5.157,8.167-.04,10,3.464,5.074,8.866,13.648,21.1,23.127,25.431a25.272,25.272,0,0,0,17.388,1.306,15.166,15.166,0,0,0,6.019-2.292,42.672,42.672,0,0,0,9.56-5.931,115.631,115.631,0,0,0,21.313-22.258,49.515,49.515,0,0,1,15.323-15.195c.694-.3,1.1-.682.629-1.517-5.518-10.3.752-21.774,6.247-30.668.671-1.057,1.22-1.044,1.884-.04a3.25,3.25,0,0,1,.409.9,19.876,19.876,0,0,0,10.6,11.97c7.343,4.31,16.478,5.021,23.1,10.627a9.591,9.591,0,0,1,3.413,8.843,40.5,40.5,0,0,1-13.306,25.61,3.089,3.089,0,0,1-3.826.736,52.454,52.454,0,0,0-25.887-4.276,27.151,27.151,0,0,0-16.331,13.415c-3.395,4.877-6.457,9.987-10.079,14.711a69.735,69.735,0,0,1-12.9,13.134c-.458.349-1.291.479-1.075,1.359-.7-.211-1.186-.094-1.155.753-.559-.293-.966.111-1.38.378a33.721,33.721,0,0,1-36.328-.193,91.737,91.737,0,0,1-12.3-11.172,45.029,45.029,0,0,0-7.991-6.77c-3.08-1.967-4.451-1.512-5.908,1.883s-2.368,7-3.5,10.5c-8.061,27.945-33.924,42.434-60.9,47.748a89.141,89.141,0,0,0-20.566,5.518,5.371,5.371,0,0,1-2.444.718C67.514,229.647,66.908,229.647,66.692,229ZM.109,153.572c-1.51-30.809,12.8-59.039,33.918-80.726a27.5,27.5,0,0,1,3.307-2.835,3.991,3.991,0,0,1,2.164-.892c2.8-.158,1.75,2.182.443,3.447C23.813,91.12,9.144,114.078,10.6,139.609c.834,20.813,13.923,36.7,35.469,36.707,25.817-.355,50.326-19.289,64.64-39.518,5.873-8.5,11.852-20.846,4.788-30.365-4.73-6.118-14.413-9.164-21.692-11.024A47.057,47.057,0,0,1,80.467,90.55c-10.7-6-11.251-19.108-8.6-29.788a139.541,139.541,0,0,1,4.917-16.915A62.076,62.076,0,0,1,87.7,25.332C96.485,14.835,108.115,3.915,121.688.48a8.165,8.165,0,0,1,9.806,3.569c5.092,9.023-1.627,24.994-2.567,34.9-.082.734-.151,1.837-1.085,1.907-1.166.088-1.166-1.079-1.307-1.878a65.892,65.892,0,0,1-.682-8.073,11.742,11.742,0,0,0-1.1-4.783,3.769,3.769,0,0,0-4.509-2.334,31.836,31.836,0,0,0-11.421,4.824,85.029,85.029,0,0,0-26.614,24.2,7.478,7.478,0,0,0,2.764,11.427,31.889,31.889,0,0,0,9.6,2.986,105.925,105.925,0,0,1,16.115,3.984c16.589,6.095,17.435,21.936,15.679,37.165-.449,4.129-.928,8.259-1.33,12.395a97.089,97.089,0,0,1-53.662,79.151,59.26,59.26,0,0,1-25.134,6.032C20.126,205.958.817,184.9.109,153.572Zm219.226,27.465.049.027-.047.023C219.336,181.069,219.335,181.053,219.335,181.036Zm1.155-.753.013,0v.047C220.5,180.317,220.494,180.3,220.49,180.283Zm-23.55-44.272q-3.9-11.6-6.943-15.03h-.95l-1.426,1.141h-.857q-2.854,0-6.373-5.516v-.572q2.947-6.087,4.66-7.23h.571q9.512,0,14.174,21.688v.286h.285Q204.169,105,211.685,105q2.568,0,5.517,5.232a2.845,2.845,0,0,1,.285,1.426v.571q-1.048,5.234-2.283,5.231-.381,0-3.8-3.518l-1.427-.572q-3.806,0-7.515,22.354-2.473,6.946-3.8,6.944Q197.8,142.669,196.94,136.011ZM199.829,89.7q12.33-5.328,40.733-16.856,11.43-4.4,31.74-11.746l-1.094,6.056q-9.729,3.432-31.74,11.744Q224.7,84.662,198.622,95.746Zm-26.6-107.929q-4.506,0-6.3-5.941a29.462,29.462,0,0,1-.361-3.963v-4.862q0-14.4,10.805-32.955h.72q-7.023,22.332-7.023,28.453,0,9.365,4.681,9.364,3.421,0,7.384-8.285h.36l.54.722q-3.243,17.466-9.365,17.466Z" transform="translate(1077.9)" fill="none" stroke="#e7e7e7" stroke-width="1"/>
          </g>
        </g>
      </g>
      <g id="Group_79" data-name="Group 79" transform="translate(-399 49.448)">
        <g id="Group_58-2" data-name="Group 58" transform="translate(-678.899 721)">
          <g id="Group_57-2" data-name="Group 57">
            <path id="Union_4-2" data-name="Union 4" d="M68.3,937.184a1.2,1.2,0,0,1,.367-1.266,11.058,11.058,0,0,1,1.166-1.043c33.731-22.5,69.836-43.834,82.511-85.073q1.062-3.294,2.165-6.579a20.613,20.613,0,0,1,1.983-4.082c3.307-5.157,8.166-.041,10,3.464,5.075,8.866,13.649,21.1,23.127,25.431A25.273,25.273,0,0,0,207,869.342a15.169,15.169,0,0,0,6.02-2.292,42.667,42.667,0,0,0,9.559-5.931A115.634,115.634,0,0,0,243.9,838.861a49.512,49.512,0,0,1,15.322-15.195c.694-.3,1.1-.682.63-1.517-5.518-10.3.752-21.774,6.247-30.668.671-1.057,1.219-1.044,1.884-.041a3.294,3.294,0,0,1,.409.9,19.873,19.873,0,0,0,10.6,11.97c7.343,4.31,16.477,5.021,23.1,10.627a9.591,9.591,0,0,1,3.413,8.843,40.5,40.5,0,0,1-13.3,25.609,3.09,3.09,0,0,1-3.827.736,52.453,52.453,0,0,0-25.886-4.276,27.149,27.149,0,0,0-16.331,13.415c-3.395,4.877-6.458,9.987-10.08,14.711a69.758,69.758,0,0,1-12.9,13.134c-.458.349-1.292.479-1.075,1.359-.7-.211-1.186-.094-1.155.753-.558-.293-.966.111-1.38.378a33.717,33.717,0,0,1-36.327-.193,91.67,91.67,0,0,1-12.3-11.171,45.035,45.035,0,0,0-7.992-6.77c-3.079-1.967-4.45-1.512-5.908,1.883s-2.369,7-3.5,10.5c-8.061,27.945-33.924,42.434-60.9,47.748a89.2,89.2,0,0,0-20.566,5.517,5.36,5.36,0,0,1-2.444.719C69.122,937.832,68.515,937.832,68.3,937.184ZM1.716,861.756c-1.511-30.809,12.8-59.039,33.917-80.726a27.57,27.57,0,0,1,3.307-2.836A4,4,0,0,1,41.1,777.3c2.8-.157,1.75,2.182.444,3.447-16.128,18.554-30.8,41.512-29.345,67.043.834,20.813,13.923,36.7,35.47,36.707,25.816-.356,50.325-19.289,64.639-39.518,5.874-8.5,11.852-20.846,4.789-30.365-4.73-6.119-14.413-9.164-21.692-11.024a47.047,47.047,0,0,1-13.334-4.859c-10.7-6-11.252-19.108-8.6-29.788a139.545,139.545,0,0,1,4.918-16.916,62.058,62.058,0,0,1,10.913-18.514c8.783-10.5,20.415-21.417,33.988-24.853a8.166,8.166,0,0,1,9.805,3.57c5.091,9.023-1.628,24.994-2.567,34.9-.082.734-.152,1.837-1.085,1.907-1.167.088-1.167-1.079-1.307-1.878a65.717,65.717,0,0,1-.683-8.073,11.728,11.728,0,0,0-1.1-4.783,3.768,3.768,0,0,0-4.508-2.334,31.84,31.84,0,0,0-11.422,4.824A85.038,85.038,0,0,0,83.813,761a7.478,7.478,0,0,0,2.764,11.427,31.9,31.9,0,0,0,9.6,2.986,105.942,105.942,0,0,1,16.116,3.984c16.588,6.095,17.434,21.936,15.678,37.166-.449,4.129-.927,8.259-1.329,12.395A97.091,97.091,0,0,1,72.976,908.11a59.26,59.26,0,0,1-25.134,6.032C21.733,914.143,2.424,893.087,1.716,861.756Zm219.225,27.465.049.027-.047.023C220.943,889.254,220.942,889.238,220.941,889.221Zm1.155-.753.013,0v.047C222.105,888.5,222.1,888.485,222.1,888.468ZM196.94,839.886q-3.9-11.6-6.943-15.03h-.95L187.619,826h-.857q-2.854,0-6.373-5.517v-.572q2.947-6.086,4.66-7.23h.571q9.512,0,14.174,21.688v.286h.285q4.089-25.777,11.605-25.779,2.568,0,5.517,5.233a2.841,2.841,0,0,1,.285,1.426v.571q-1.048,5.234-2.283,5.232-.381,0-3.8-3.519l-1.427-.572q-3.806,0-7.515,22.354-2.473,6.946-3.8,6.944Q197.8,846.544,196.94,839.886Zm3.206-44.7q12.33-5.328,40.733-16.856,11.43-4.4,31.74-11.746l-1.094,6.056q-9.729,3.432-31.74,11.744-14.773,5.762-40.846,16.845Zm4.751-27.833a1.2,1.2,0,0,1,.367-1.266,10.98,10.98,0,0,1,1.166-1.044c33.731-22.5,69.836-43.834,82.511-85.072q1.061-3.294,2.164-6.58a20.7,20.7,0,0,1,1.983-4.081c3.308-5.157,8.167-.041,10,3.463,5.075,8.867,13.649,21.1,23.127,25.432a25.272,25.272,0,0,0,17.388,1.3,15.145,15.145,0,0,0,6.019-2.291,42.67,42.67,0,0,0,9.56-5.931,115.641,115.641,0,0,0,21.314-22.259,49.5,49.5,0,0,1,15.323-15.195c.694-.3,1.1-.681.629-1.516-5.517-10.3.753-21.775,6.247-30.669.671-1.056,1.219-1.044,1.885-.04a3.279,3.279,0,0,1,.408.9,19.874,19.874,0,0,0,10.6,11.969c7.344,4.31,16.478,5.022,23.1,10.627a9.593,9.593,0,0,1,3.413,8.843,40.5,40.5,0,0,1-13.306,25.61,3.091,3.091,0,0,1-3.826.736,52.443,52.443,0,0,0-25.886-4.276,27.152,27.152,0,0,0-16.332,13.414c-3.395,4.878-6.457,9.987-10.079,14.711a69.74,69.74,0,0,1-12.9,13.135c-.458.349-1.291.479-1.075,1.359-.7-.212-1.186-.094-1.155.753-.558-.293-.966.11-1.38.377a33.719,33.719,0,0,1-36.328-.193,91.608,91.608,0,0,1-12.3-11.171,45.041,45.041,0,0,0-7.992-6.771c-3.08-1.966-4.451-1.511-5.909,1.884s-2.368,7-3.5,10.5c-8.061,27.945-33.924,42.434-60.9,47.748a89.2,89.2,0,0,0-20.566,5.517,5.372,5.372,0,0,1-2.444.719C205.718,768,205.112,768,204.9,767.353Zm-66.584-75.428c-1.51-30.809,12.8-59.039,33.918-80.725a27.506,27.506,0,0,1,3.308-2.836,4,4,0,0,1,2.164-.891c2.8-.157,1.75,2.182.443,3.447-16.128,18.554-30.8,41.512-29.345,67.042.834,20.813,13.923,36.7,35.469,36.707,25.816-.355,50.326-19.289,64.64-39.517,5.873-8.5,11.852-20.846,4.789-30.366-4.73-6.118-14.413-9.163-21.693-11.024a47.053,47.053,0,0,1-13.334-4.858c-10.7-6-11.251-19.109-8.6-29.789a139.527,139.527,0,0,1,4.917-16.915A62.075,62.075,0,0,1,225.9,563.685c8.784-10.5,20.415-21.417,33.988-24.854a8.165,8.165,0,0,1,9.8,3.57c5.092,9.023-1.627,24.993-2.567,34.9-.082.734-.151,1.837-1.085,1.907-1.166.087-1.166-1.079-1.307-1.878a65.9,65.9,0,0,1-.682-8.074,11.738,11.738,0,0,0-1.1-4.782,3.769,3.769,0,0,0-4.509-2.334,31.837,31.837,0,0,0-11.421,4.824,85.014,85.014,0,0,0-26.614,24.2,7.478,7.478,0,0,0,2.764,11.428,31.888,31.888,0,0,0,9.6,2.985,106.139,106.139,0,0,1,16.115,3.984c16.589,6.1,17.435,21.937,15.679,37.166-.449,4.13-.928,8.26-1.33,12.395a97.09,97.09,0,0,1-53.662,79.151,59.259,59.259,0,0,1-25.134,6.032C158.331,744.311,139.021,723.254,138.313,691.924Zm219.226,27.465.049.027-.047.023C357.54,719.422,357.539,719.406,357.539,719.389Zm1.155-.753.013,0v.047C358.7,718.67,358.7,718.653,358.694,718.636ZM173.225,687.962q-4.506,0-6.3-5.941a29.462,29.462,0,0,1-.361-3.963V673.2q0-14.4,10.805-32.954h.72q-7.023,22.33-7.023,28.452,0,9.365,4.681,9.365,3.421,0,7.384-8.284h.36l.54.722q-3.243,17.466-9.365,17.466ZM280.34,654.524l-1.392-.073q-4.891-1.143-4.441-9.752l.047-.886q.4-7.594,7.871-24.209a48.559,48.559,0,0,0,.964-6.3l.106-2.025q.617-11.769-10.911-24.305l.021-.38a27.794,27.794,0,0,1,3.73-5.77l.38.021q11.522,10.122,10.651,26.831l-.093,1.771q-.452,8.61-8.242,26.475l-.831,3.764q-.378,7.214,3.417,7.414,2.53.134,5.781-6.17l.887.046q-3.081,13.553-7.772,13.551C280.455,654.529,280.4,654.527,280.34,654.524ZM192.758,600.3c3.528-5.788,8.935-8.514,8.035-11.249a3.013,3.013,0,0,0-1.607-1.606c-3.819-1.958-9.811,2.743-12.857,4.82-10.885,7.419-25.546,9.542-35.355,8.035-8.723-1.34-19.241-6.413-19.284-6.428a24.108,24.108,0,0,1,0,8.035c-.454,2.586-1.607,6.425-1.607,6.428a51.281,51.281,0,0,0-7.656-19.668,5.307,5.307,0,0,1,.031-5.856l.032-.049a2.041,2.041,0,0,1,2.85-.565,59.51,59.51,0,0,0,9.563,5.247,53.774,53.774,0,0,0,20.892,4.82c11.4.108,20.851-4.208,25.713-6.428,7.921-3.621,12.932-8.112,19.283-6.428.984.26,3.576.985,4.821,3.214,1.964,3.515-.818,8.286-1.607,9.642-2.243,3.845-4.368,4.332-8.035,8.035a31.341,31.341,0,0,0-6.428,9.643A23.637,23.637,0,0,1,192.758,600.3ZM68.3,585.247a1.2,1.2,0,0,1,.367-1.266,11.065,11.065,0,0,1,1.166-1.043c33.731-22.5,69.836-43.834,82.511-85.072q1.062-3.294,2.165-6.579a20.613,20.613,0,0,1,1.983-4.082c3.307-5.157,8.166-.041,10,3.464,5.075,8.866,13.649,21.1,23.127,25.431A25.267,25.267,0,0,0,207,517.4a15.154,15.154,0,0,0,6.02-2.291,42.666,42.666,0,0,0,9.559-5.931A115.635,115.635,0,0,0,243.9,486.923a49.513,49.513,0,0,1,15.322-15.195c.694-.3,1.1-.682.63-1.517-5.518-10.3.752-21.774,6.247-30.668.671-1.057,1.219-1.045,1.884-.041a3.294,3.294,0,0,1,.409.9,19.873,19.873,0,0,0,10.6,11.97c7.343,4.31,16.477,5.021,23.1,10.626a9.593,9.593,0,0,1,3.413,8.843,40.5,40.5,0,0,1-13.3,25.61,3.091,3.091,0,0,1-3.827.736,52.452,52.452,0,0,0-25.886-4.276,27.149,27.149,0,0,0-16.331,13.415c-3.395,4.877-6.458,9.986-10.08,14.711a69.735,69.735,0,0,1-12.9,13.135c-.458.349-1.292.479-1.075,1.359-.7-.211-1.186-.094-1.155.753-.558-.293-.966.11-1.38.377a33.717,33.717,0,0,1-36.327-.193,91.667,91.667,0,0,1-12.3-11.171,45.042,45.042,0,0,0-7.992-6.771c-3.079-1.966-4.45-1.511-5.908,1.884s-2.369,7-3.5,10.5c-8.061,27.945-33.924,42.434-60.9,47.748a89.2,89.2,0,0,0-20.566,5.517,5.372,5.372,0,0,1-2.444.719C69.122,585.894,68.515,585.894,68.3,585.247ZM1.716,509.819c-1.511-30.809,12.8-59.039,33.917-80.725a27.579,27.579,0,0,1,3.307-2.836,4,4,0,0,1,2.164-.891c2.8-.158,1.75,2.182.444,3.447-16.128,18.554-30.8,41.512-29.345,67.043.834,20.813,13.923,36.7,35.47,36.707,25.816-.356,50.325-19.289,64.639-39.517,5.874-8.5,11.852-20.846,4.789-30.365-4.73-6.119-14.413-9.164-21.692-11.024A47.074,47.074,0,0,1,82.075,446.8c-10.7-6-11.252-19.108-8.6-29.788a139.546,139.546,0,0,1,4.918-16.915,62.057,62.057,0,0,1,10.913-18.514c8.783-10.5,20.415-21.417,33.988-24.854a8.166,8.166,0,0,1,9.805,3.57c5.091,9.023-1.628,24.994-2.567,34.9-.082.734-.152,1.837-1.085,1.907-1.167.087-1.167-1.079-1.307-1.878a65.73,65.73,0,0,1-.683-8.074,11.724,11.724,0,0,0-1.1-4.782,3.768,3.768,0,0,0-4.508-2.334,31.841,31.841,0,0,0-11.422,4.824,85.045,85.045,0,0,0-26.614,24.2,7.478,7.478,0,0,0,2.764,11.428,31.9,31.9,0,0,0,9.6,2.986,106.036,106.036,0,0,1,16.116,3.983c16.588,6.1,17.434,21.937,15.678,37.166-.449,4.129-.927,8.259-1.329,12.394a97.091,97.091,0,0,1-53.662,79.151A59.26,59.26,0,0,1,47.842,562.2C21.733,562.2,2.424,541.149,1.716,509.819Zm219.225,27.465.049.027-.047.023C220.943,537.316,220.942,537.3,220.941,537.283Zm1.155-.753.013,0v.047C222.105,536.564,222.1,536.547,222.1,536.53ZM196.94,487.949q-3.9-11.6-6.943-15.03h-.95l-1.426,1.142h-.857q-2.854,0-6.373-5.517v-.572q2.947-6.086,4.66-7.23h.571q9.512,0,14.174,21.688v.286h.285q4.089-25.778,11.605-25.779,2.568,0,5.517,5.233a2.838,2.838,0,0,1,.285,1.426v.571Q216.44,469.4,215.2,469.4q-.381,0-3.8-3.519l-1.427-.572q-3.806,0-7.515,22.354-2.473,6.946-3.8,6.944Q197.8,494.607,196.94,487.949Zm3.206-44.7q12.33-5.328,40.733-16.856,11.43-4.4,31.74-11.746l-1.094,6.056q-9.729,3.432-31.74,11.744-14.773,5.76-40.846,16.845ZM204.9,412.2a1.2,1.2,0,0,1,.367-1.265,10.973,10.973,0,0,1,1.166-1.044c33.731-22.5,69.836-43.835,82.511-85.073q1.061-3.294,2.164-6.579a20.681,20.681,0,0,1,1.983-4.082c3.308-5.157,8.167-.041,10,3.463,5.075,8.867,13.649,21.1,23.127,25.431a25.272,25.272,0,0,0,17.388,1.306,15.159,15.159,0,0,0,6.019-2.291,42.708,42.708,0,0,0,9.56-5.932,115.661,115.661,0,0,0,21.314-22.258,49.5,49.5,0,0,1,15.323-15.195c.694-.3,1.1-.682.629-1.516-5.517-10.3.753-21.775,6.247-30.669.671-1.056,1.219-1.044,1.885-.04a3.274,3.274,0,0,1,.408.9,19.876,19.876,0,0,0,10.6,11.97c7.344,4.31,16.478,5.022,23.1,10.627a9.591,9.591,0,0,1,3.413,8.843,40.5,40.5,0,0,1-13.306,25.61,3.089,3.089,0,0,1-3.826.735,52.462,52.462,0,0,0-25.886-4.276,27.15,27.15,0,0,0-16.332,13.415c-3.395,4.878-6.457,9.987-10.079,14.711a69.735,69.735,0,0,1-12.9,13.134c-.458.349-1.291.479-1.074,1.36-.7-.212-1.186-.094-1.155.752-.558-.293-.966.111-1.38.378a33.721,33.721,0,0,1-36.328-.193,91.726,91.726,0,0,1-12.3-11.171,45.04,45.04,0,0,0-7.992-6.771c-3.08-1.966-4.451-1.512-5.909,1.884s-2.368,7-3.5,10.5c-8.061,27.945-33.924,42.434-60.9,47.748a89.244,89.244,0,0,0-20.566,5.518,5.383,5.383,0,0,1-2.444.719C205.718,412.847,205.112,412.847,204.9,412.2Zm-66.584-75.428c-1.51-30.808,12.8-59.039,33.918-80.725a27.58,27.58,0,0,1,3.308-2.835,3.983,3.983,0,0,1,2.164-.891c2.8-.158,1.75,2.181.443,3.446-16.128,18.554-30.8,41.513-29.345,67.043.834,20.813,13.923,36.7,35.469,36.707,25.816-.356,50.326-19.289,64.64-39.517,5.873-8.5,11.852-20.847,4.789-30.366-4.73-6.118-14.413-9.164-21.693-11.024a47.057,47.057,0,0,1-13.334-4.859c-10.7-6-11.251-19.108-8.6-29.788a139.542,139.542,0,0,1,4.917-16.916A62.06,62.06,0,0,1,225.9,208.534c8.784-10.5,20.415-21.418,33.988-24.854a8.165,8.165,0,0,1,9.8,3.569c5.092,9.023-1.627,24.994-2.567,34.9-.082.734-.151,1.837-1.085,1.907-1.166.088-1.166-1.079-1.307-1.878a65.889,65.889,0,0,1-.682-8.073,11.735,11.735,0,0,0-1.1-4.782,3.769,3.769,0,0,0-4.509-2.335,31.852,31.852,0,0,0-11.421,4.824,85.029,85.029,0,0,0-26.614,24.2,7.477,7.477,0,0,0,2.764,11.427,31.889,31.889,0,0,0,9.6,2.986,106.031,106.031,0,0,1,16.115,3.984c16.589,6.095,17.435,21.937,15.679,37.165-.449,4.13-.928,8.259-1.33,12.395a97.09,97.09,0,0,1-53.662,79.151,59.262,59.262,0,0,1-25.134,6.033C158.33,389.159,139.021,368.1,138.313,336.772Zm219.226,27.465.049.027-.047.022C357.54,364.27,357.539,364.253,357.539,364.237Zm1.155-.752.013,0v.047Q358.7,363.509,358.694,363.484Zm-185.469-27.46q-4.506,0-6.3-5.941a29.461,29.461,0,0,1-.361-3.963v-4.862q0-14.4,10.805-32.955h.72q-7.023,22.332-7.023,28.453,0,9.365,4.681,9.365,3.421,0,7.384-8.285h.36l.54.722q-3.243,17.466-9.365,17.466ZM280.34,300.979l-1.392-.073q-4.891-1.143-4.441-9.752l.047-.886q.4-7.594,7.871-24.209a48.573,48.573,0,0,0,.964-6.3l.106-2.026q.617-11.769-10.911-24.305l.021-.379a27.767,27.767,0,0,1,3.73-5.77l.38.02q11.522,10.122,10.651,26.831l-.093,1.771q-.452,8.61-8.242,26.475l-.831,3.765q-.378,7.213,3.417,7.414,2.53.132,5.781-6.171l.887.047q-3.081,13.551-7.772,13.55C280.455,300.983,280.4,300.982,280.34,300.979Zm-89.188-52.621c3.527-5.788,8.935-8.514,8.035-11.249a3.017,3.017,0,0,0-1.607-1.607c-3.818-1.958-9.811,2.743-12.856,4.82-10.885,7.419-25.547,9.541-35.355,8.035-8.723-1.34-19.241-6.413-19.284-6.428a24.157,24.157,0,0,1,0,8.035c-.454,2.586-1.607,6.425-1.607,6.428a51.294,51.294,0,0,0-7.656-19.669,5.309,5.309,0,0,1,.031-5.855l.032-.049a2.042,2.042,0,0,1,2.851-.565A59.472,59.472,0,0,0,133.3,235.5a53.763,53.763,0,0,0,20.891,4.82c11.4.108,20.851-4.208,25.713-6.428,7.921-3.621,12.933-8.113,19.284-6.428.984.26,3.575.985,4.821,3.214,1.963,3.515-.818,8.285-1.607,9.642-2.244,3.844-4.368,4.331-8.035,8.035A31.309,31.309,0,0,0,187.938,258,23.61,23.61,0,0,1,191.152,248.358Z" transform="translate(1077.9)" fill="none" stroke="#e7e7e7" stroke-width="1"/>
          </g>
        </g>
      </g>
      <g id="Group_80" data-name="Group 80" transform="translate(-399 760.448)">
        <g id="Group_58-3" data-name="Group 58" transform="translate(-678.899 721)">
          <g id="Group_57-3" data-name="Group 57">
            <path id="Union_4-3" data-name="Union 4" d="M68.3,937.184a1.2,1.2,0,0,1,.367-1.266,11.058,11.058,0,0,1,1.166-1.043c33.731-22.5,69.836-43.834,82.511-85.073q1.062-3.294,2.165-6.579a20.613,20.613,0,0,1,1.983-4.082c3.307-5.157,8.166-.041,10,3.464,5.075,8.866,13.649,21.1,23.127,25.431A25.273,25.273,0,0,0,207,869.342a15.169,15.169,0,0,0,6.02-2.292,42.667,42.667,0,0,0,9.559-5.931A115.634,115.634,0,0,0,243.9,838.861a49.512,49.512,0,0,1,15.322-15.195c.694-.3,1.1-.682.63-1.517-5.518-10.3.752-21.774,6.247-30.668.671-1.057,1.219-1.044,1.884-.041a3.294,3.294,0,0,1,.409.9,19.873,19.873,0,0,0,10.6,11.97c7.343,4.31,16.477,5.021,23.1,10.627a9.591,9.591,0,0,1,3.413,8.843,40.5,40.5,0,0,1-13.3,25.609,3.09,3.09,0,0,1-3.827.736,52.453,52.453,0,0,0-25.886-4.276,27.149,27.149,0,0,0-16.331,13.415c-3.395,4.877-6.458,9.987-10.08,14.711a69.758,69.758,0,0,1-12.9,13.134c-.458.349-1.292.479-1.075,1.359-.7-.211-1.186-.094-1.155.753-.558-.293-.966.111-1.38.378a33.717,33.717,0,0,1-36.327-.193,91.67,91.67,0,0,1-12.3-11.171,45.035,45.035,0,0,0-7.992-6.77c-3.079-1.967-4.45-1.512-5.908,1.883s-2.369,7-3.5,10.5c-8.061,27.945-33.924,42.434-60.9,47.748a89.2,89.2,0,0,0-20.566,5.517,5.36,5.36,0,0,1-2.444.719C69.122,937.832,68.515,937.832,68.3,937.184ZM1.716,861.756c-1.511-30.809,12.8-59.039,33.917-80.726a27.57,27.57,0,0,1,3.307-2.836A4,4,0,0,1,41.1,777.3c2.8-.157,1.75,2.182.444,3.447-16.128,18.554-30.8,41.512-29.345,67.043.834,20.813,13.923,36.7,35.47,36.707,25.816-.356,50.325-19.289,64.639-39.518,5.874-8.5,11.852-20.846,4.789-30.365-4.73-6.119-14.413-9.164-21.692-11.024a47.047,47.047,0,0,1-13.334-4.859c-10.7-6-11.252-19.108-8.6-29.788a139.545,139.545,0,0,1,4.918-16.916,62.058,62.058,0,0,1,10.913-18.514c8.783-10.5,20.415-21.417,33.988-24.853a8.166,8.166,0,0,1,9.805,3.57c5.091,9.023-1.628,24.994-2.567,34.9-.082.734-.152,1.837-1.085,1.907-1.167.088-1.167-1.079-1.307-1.878a65.717,65.717,0,0,1-.683-8.073,11.728,11.728,0,0,0-1.1-4.783,3.768,3.768,0,0,0-4.508-2.334,31.84,31.84,0,0,0-11.422,4.824A85.038,85.038,0,0,0,83.813,761a7.478,7.478,0,0,0,2.764,11.427,31.9,31.9,0,0,0,9.6,2.986,105.942,105.942,0,0,1,16.116,3.984c16.588,6.095,17.434,21.936,15.678,37.166-.449,4.129-.927,8.259-1.329,12.395A97.091,97.091,0,0,1,72.976,908.11a59.26,59.26,0,0,1-25.134,6.032C21.733,914.143,2.424,893.087,1.716,861.756Zm219.225,27.465.049.027-.047.023C220.943,889.254,220.942,889.238,220.941,889.221Zm1.155-.753.013,0v.047C222.105,888.5,222.1,888.485,222.1,888.468ZM196.94,839.886q-3.9-11.6-6.943-15.03h-.95L187.619,826h-.857q-2.854,0-6.373-5.517v-.572q2.947-6.086,4.66-7.23h.571q9.512,0,14.174,21.688v.286h.285q4.089-25.777,11.605-25.779,2.568,0,5.517,5.233a2.841,2.841,0,0,1,.285,1.426v.571q-1.048,5.234-2.283,5.232-.381,0-3.8-3.519l-1.427-.572q-3.806,0-7.515,22.354-2.473,6.946-3.8,6.944Q197.8,846.544,196.94,839.886Zm3.206-44.7q12.33-5.328,40.733-16.856,11.43-4.4,31.74-11.746l-1.094,6.056q-9.729,3.432-31.74,11.744-14.773,5.762-40.846,16.845Zm4.751-27.833a1.2,1.2,0,0,1,.367-1.266,10.98,10.98,0,0,1,1.166-1.044c33.731-22.5,69.836-43.834,82.511-85.072q1.061-3.294,2.164-6.58a20.7,20.7,0,0,1,1.983-4.081c3.308-5.157,8.167-.041,10,3.463,5.075,8.867,13.649,21.1,23.127,25.432a25.272,25.272,0,0,0,17.388,1.3,15.145,15.145,0,0,0,6.019-2.291,42.67,42.67,0,0,0,9.56-5.931,115.641,115.641,0,0,0,21.314-22.259,49.5,49.5,0,0,1,15.323-15.195c.694-.3,1.1-.681.629-1.516-5.517-10.3.753-21.775,6.247-30.669.671-1.056,1.219-1.044,1.885-.04a3.279,3.279,0,0,1,.408.9,19.874,19.874,0,0,0,10.6,11.969c7.344,4.31,16.478,5.022,23.1,10.627a9.593,9.593,0,0,1,3.413,8.843,40.5,40.5,0,0,1-13.306,25.61,3.091,3.091,0,0,1-3.826.736,52.443,52.443,0,0,0-25.886-4.276,27.152,27.152,0,0,0-16.332,13.414c-3.395,4.878-6.457,9.987-10.079,14.711a69.74,69.74,0,0,1-12.9,13.135c-.458.349-1.291.479-1.075,1.359-.7-.212-1.186-.094-1.155.753-.558-.293-.966.11-1.38.377a33.719,33.719,0,0,1-36.328-.193,91.608,91.608,0,0,1-12.3-11.171,45.041,45.041,0,0,0-7.992-6.771c-3.08-1.966-4.451-1.511-5.909,1.884s-2.368,7-3.5,10.5c-8.061,27.945-33.924,42.434-60.9,47.748a89.2,89.2,0,0,0-20.566,5.517,5.372,5.372,0,0,1-2.444.719C205.718,768,205.112,768,204.9,767.353Zm-66.584-75.428c-1.51-30.809,12.8-59.039,33.918-80.725a27.506,27.506,0,0,1,3.308-2.836,4,4,0,0,1,2.164-.891c2.8-.157,1.75,2.182.443,3.447-16.128,18.554-30.8,41.512-29.345,67.042.834,20.813,13.923,36.7,35.469,36.707,25.816-.355,50.326-19.289,64.64-39.517,5.873-8.5,11.852-20.846,4.789-30.366-4.73-6.118-14.413-9.163-21.693-11.024a47.053,47.053,0,0,1-13.334-4.858c-10.7-6-11.251-19.109-8.6-29.789a139.527,139.527,0,0,1,4.917-16.915A62.075,62.075,0,0,1,225.9,563.685c8.784-10.5,20.415-21.417,33.988-24.854a8.165,8.165,0,0,1,9.8,3.57c5.092,9.023-1.627,24.993-2.567,34.9-.082.734-.151,1.837-1.085,1.907-1.166.087-1.166-1.079-1.307-1.878a65.9,65.9,0,0,1-.682-8.074,11.738,11.738,0,0,0-1.1-4.782,3.769,3.769,0,0,0-4.509-2.334,31.837,31.837,0,0,0-11.421,4.824,85.014,85.014,0,0,0-26.614,24.2,7.478,7.478,0,0,0,2.764,11.428,31.888,31.888,0,0,0,9.6,2.985,106.139,106.139,0,0,1,16.115,3.984c16.589,6.1,17.435,21.937,15.679,37.166-.449,4.13-.928,8.26-1.33,12.395a97.09,97.09,0,0,1-53.662,79.151,59.259,59.259,0,0,1-25.134,6.032C158.331,744.311,139.021,723.254,138.313,691.924Zm219.226,27.465.049.027-.047.023C357.54,719.422,357.539,719.406,357.539,719.389Zm1.155-.753.013,0v.047C358.7,718.67,358.7,718.653,358.694,718.636ZM173.225,687.962q-4.506,0-6.3-5.941a29.462,29.462,0,0,1-.361-3.963V673.2q0-14.4,10.805-32.954h.72q-7.023,22.33-7.023,28.452,0,9.365,4.681,9.365,3.421,0,7.384-8.284h.36l.54.722q-3.243,17.466-9.365,17.466ZM280.34,654.524l-1.392-.073q-4.891-1.143-4.441-9.752l.047-.886q.4-7.594,7.871-24.209a48.559,48.559,0,0,0,.964-6.3l.106-2.025q.617-11.769-10.911-24.305l.021-.38a27.794,27.794,0,0,1,3.73-5.77l.38.021q11.522,10.122,10.651,26.831l-.093,1.771q-.452,8.61-8.242,26.475l-.831,3.764q-.378,7.214,3.417,7.414,2.53.134,5.781-6.17l.887.046q-3.081,13.553-7.772,13.551C280.455,654.529,280.4,654.527,280.34,654.524ZM192.758,600.3c3.528-5.788,8.935-8.514,8.035-11.249a3.013,3.013,0,0,0-1.607-1.606c-3.819-1.958-9.811,2.743-12.857,4.82-10.885,7.419-25.546,9.542-35.355,8.035-8.723-1.34-19.241-6.413-19.284-6.428a24.108,24.108,0,0,1,0,8.035c-.454,2.586-1.607,6.425-1.607,6.428a51.281,51.281,0,0,0-7.656-19.668,5.307,5.307,0,0,1,.031-5.856l.032-.049a2.041,2.041,0,0,1,2.85-.565,59.51,59.51,0,0,0,9.563,5.247,53.774,53.774,0,0,0,20.892,4.82c11.4.108,20.851-4.208,25.713-6.428,7.921-3.621,12.932-8.112,19.283-6.428.984.26,3.576.985,4.821,3.214,1.964,3.515-.818,8.286-1.607,9.642-2.243,3.845-4.368,4.332-8.035,8.035a31.341,31.341,0,0,0-6.428,9.643A23.637,23.637,0,0,1,192.758,600.3ZM68.3,585.247a1.2,1.2,0,0,1,.367-1.266,11.065,11.065,0,0,1,1.166-1.043c33.731-22.5,69.836-43.834,82.511-85.072q1.062-3.294,2.165-6.579a20.613,20.613,0,0,1,1.983-4.082c3.307-5.157,8.166-.041,10,3.464,5.075,8.866,13.649,21.1,23.127,25.431A25.267,25.267,0,0,0,207,517.4a15.154,15.154,0,0,0,6.02-2.291,42.666,42.666,0,0,0,9.559-5.931A115.635,115.635,0,0,0,243.9,486.923a49.513,49.513,0,0,1,15.322-15.195c.694-.3,1.1-.682.63-1.517-5.518-10.3.752-21.774,6.247-30.668.671-1.057,1.219-1.045,1.884-.041a3.294,3.294,0,0,1,.409.9,19.873,19.873,0,0,0,10.6,11.97c7.343,4.31,16.477,5.021,23.1,10.626a9.593,9.593,0,0,1,3.413,8.843,40.5,40.5,0,0,1-13.3,25.61,3.091,3.091,0,0,1-3.827.736,52.452,52.452,0,0,0-25.886-4.276,27.149,27.149,0,0,0-16.331,13.415c-3.395,4.877-6.458,9.986-10.08,14.711a69.735,69.735,0,0,1-12.9,13.135c-.458.349-1.292.479-1.075,1.359-.7-.211-1.186-.094-1.155.753-.558-.293-.966.11-1.38.377a33.717,33.717,0,0,1-36.327-.193,91.667,91.667,0,0,1-12.3-11.171,45.042,45.042,0,0,0-7.992-6.771c-3.079-1.966-4.45-1.511-5.908,1.884s-2.369,7-3.5,10.5c-8.061,27.945-33.924,42.434-60.9,47.748a89.2,89.2,0,0,0-20.566,5.517,5.372,5.372,0,0,1-2.444.719C69.122,585.894,68.515,585.894,68.3,585.247ZM1.716,509.819c-1.511-30.809,12.8-59.039,33.917-80.725a27.579,27.579,0,0,1,3.307-2.836,4,4,0,0,1,2.164-.891c2.8-.158,1.75,2.182.444,3.447-16.128,18.554-30.8,41.512-29.345,67.043.834,20.813,13.923,36.7,35.47,36.707,25.816-.356,50.325-19.289,64.639-39.517,5.874-8.5,11.852-20.846,4.789-30.365-4.73-6.119-14.413-9.164-21.692-11.024A47.074,47.074,0,0,1,82.075,446.8c-10.7-6-11.252-19.108-8.6-29.788a139.546,139.546,0,0,1,4.918-16.915,62.057,62.057,0,0,1,10.913-18.514c8.783-10.5,20.415-21.417,33.988-24.854a8.166,8.166,0,0,1,9.805,3.57c5.091,9.023-1.628,24.994-2.567,34.9-.082.734-.152,1.837-1.085,1.907-1.167.087-1.167-1.079-1.307-1.878a65.73,65.73,0,0,1-.683-8.074,11.724,11.724,0,0,0-1.1-4.782,3.768,3.768,0,0,0-4.508-2.334,31.841,31.841,0,0,0-11.422,4.824,85.045,85.045,0,0,0-26.614,24.2,7.478,7.478,0,0,0,2.764,11.428,31.9,31.9,0,0,0,9.6,2.986,106.036,106.036,0,0,1,16.116,3.983c16.588,6.1,17.434,21.937,15.678,37.166-.449,4.129-.927,8.259-1.329,12.394a97.091,97.091,0,0,1-53.662,79.151A59.26,59.26,0,0,1,47.842,562.2C21.733,562.2,2.424,541.149,1.716,509.819Zm219.225,27.465.049.027-.047.023C220.943,537.316,220.942,537.3,220.941,537.283Zm1.155-.753.013,0v.047C222.105,536.564,222.1,536.547,222.1,536.53ZM196.94,487.949q-3.9-11.6-6.943-15.03h-.95l-1.426,1.142h-.857q-2.854,0-6.373-5.517v-.572q2.947-6.086,4.66-7.23h.571q9.512,0,14.174,21.688v.286h.285q4.089-25.778,11.605-25.779,2.568,0,5.517,5.233a2.838,2.838,0,0,1,.285,1.426v.571Q216.44,469.4,215.2,469.4q-.381,0-3.8-3.519l-1.427-.572q-3.806,0-7.515,22.354-2.473,6.946-3.8,6.944Q197.8,494.607,196.94,487.949Zm3.206-44.7q12.33-5.328,40.733-16.856,11.43-4.4,31.74-11.746l-1.094,6.056q-9.729,3.432-31.74,11.744-14.773,5.76-40.846,16.845ZM204.9,412.2a1.2,1.2,0,0,1,.367-1.265,10.973,10.973,0,0,1,1.166-1.044c33.731-22.5,69.836-43.835,82.511-85.073q1.061-3.294,2.164-6.579a20.681,20.681,0,0,1,1.983-4.082c3.308-5.157,8.167-.041,10,3.463,5.075,8.867,13.649,21.1,23.127,25.431a25.272,25.272,0,0,0,17.388,1.306,15.159,15.159,0,0,0,6.019-2.291,42.708,42.708,0,0,0,9.56-5.932,115.661,115.661,0,0,0,21.314-22.258,49.5,49.5,0,0,1,15.323-15.195c.694-.3,1.1-.682.629-1.516-5.517-10.3.753-21.775,6.247-30.669.671-1.056,1.219-1.044,1.885-.04a3.274,3.274,0,0,1,.408.9,19.876,19.876,0,0,0,10.6,11.97c7.344,4.31,16.478,5.022,23.1,10.627a9.591,9.591,0,0,1,3.413,8.843,40.5,40.5,0,0,1-13.306,25.61,3.089,3.089,0,0,1-3.826.735,52.462,52.462,0,0,0-25.886-4.276,27.15,27.15,0,0,0-16.332,13.415c-3.395,4.878-6.457,9.987-10.079,14.711a69.735,69.735,0,0,1-12.9,13.134c-.458.349-1.291.479-1.074,1.36-.7-.212-1.186-.094-1.155.752-.558-.293-.966.111-1.38.378a33.721,33.721,0,0,1-36.328-.193,91.726,91.726,0,0,1-12.3-11.171,45.04,45.04,0,0,0-7.992-6.771c-3.08-1.966-4.451-1.512-5.909,1.884s-2.368,7-3.5,10.5c-8.061,27.945-33.924,42.434-60.9,47.748a89.244,89.244,0,0,0-20.566,5.518,5.383,5.383,0,0,1-2.444.719C205.718,412.847,205.112,412.847,204.9,412.2Zm-66.584-75.428c-1.51-30.808,12.8-59.039,33.918-80.725a27.58,27.58,0,0,1,3.308-2.835,3.983,3.983,0,0,1,2.164-.891c2.8-.158,1.75,2.181.443,3.446-16.128,18.554-30.8,41.513-29.345,67.043.834,20.813,13.923,36.7,35.469,36.707,25.816-.356,50.326-19.289,64.64-39.517,5.873-8.5,11.852-20.847,4.789-30.366-4.73-6.118-14.413-9.164-21.693-11.024a47.057,47.057,0,0,1-13.334-4.859c-10.7-6-11.251-19.108-8.6-29.788a139.542,139.542,0,0,1,4.917-16.916A62.06,62.06,0,0,1,225.9,208.534c8.784-10.5,20.415-21.418,33.988-24.854a8.165,8.165,0,0,1,9.8,3.569c5.092,9.023-1.627,24.994-2.567,34.9-.082.734-.151,1.837-1.085,1.907-1.166.088-1.166-1.079-1.307-1.878a65.889,65.889,0,0,1-.682-8.073,11.735,11.735,0,0,0-1.1-4.782,3.769,3.769,0,0,0-4.509-2.335,31.852,31.852,0,0,0-11.421,4.824,85.029,85.029,0,0,0-26.614,24.2,7.477,7.477,0,0,0,2.764,11.427,31.889,31.889,0,0,0,9.6,2.986,106.031,106.031,0,0,1,16.115,3.984c16.589,6.095,17.435,21.937,15.679,37.165-.449,4.13-.928,8.259-1.33,12.395a97.09,97.09,0,0,1-53.662,79.151,59.262,59.262,0,0,1-25.134,6.033C158.33,389.159,139.021,368.1,138.313,336.772Zm219.226,27.465.049.027-.047.022C357.54,364.27,357.539,364.253,357.539,364.237Zm1.155-.752.013,0v.047Q358.7,363.509,358.694,363.484Zm-185.469-27.46q-4.506,0-6.3-5.941a29.461,29.461,0,0,1-.361-3.963v-4.862q0-14.4,10.805-32.955h.72q-7.023,22.332-7.023,28.453,0,9.365,4.681,9.365,3.421,0,7.384-8.285h.36l.54.722q-3.243,17.466-9.365,17.466ZM280.34,300.979l-1.392-.073q-4.891-1.143-4.441-9.752l.047-.886q.4-7.594,7.871-24.209a48.573,48.573,0,0,0,.964-6.3l.106-2.026q.617-11.769-10.911-24.305l.021-.379a27.767,27.767,0,0,1,3.73-5.77l.38.02q11.522,10.122,10.651,26.831l-.093,1.771q-.452,8.61-8.242,26.475l-.831,3.765q-.378,7.213,3.417,7.414,2.53.132,5.781-6.171l.887.047q-3.081,13.551-7.772,13.55C280.455,300.983,280.4,300.982,280.34,300.979Zm-89.188-52.621c3.527-5.788,8.935-8.514,8.035-11.249a3.017,3.017,0,0,0-1.607-1.607c-3.818-1.958-9.811,2.743-12.856,4.82-10.885,7.419-25.547,9.541-35.355,8.035-8.723-1.34-19.241-6.413-19.284-6.428a24.157,24.157,0,0,1,0,8.035c-.454,2.586-1.607,6.425-1.607,6.428a51.294,51.294,0,0,0-7.656-19.669,5.309,5.309,0,0,1,.031-5.855l.032-.049a2.042,2.042,0,0,1,2.851-.565A59.472,59.472,0,0,0,133.3,235.5a53.763,53.763,0,0,0,20.891,4.82c11.4.108,20.851-4.208,25.713-6.428,7.921-3.621,12.933-8.113,19.284-6.428.984.26,3.575.985,4.821,3.214,1.963,3.515-.818,8.285-1.607,9.642-2.244,3.844-4.368,4.331-8.035,8.035A31.309,31.309,0,0,0,187.938,258,23.61,23.61,0,0,1,191.152,248.358Z" transform="translate(1077.9)" fill="none" stroke="#e7e7e7" stroke-width="1"/>
          </g>
        </g>
      </g>
      <g id="Group_2377" data-name="Group 2377" transform="translate(-399 1470.448)">
        <g id="Group_58-4" data-name="Group 58" transform="translate(-678.899 721)">
          <g id="Group_57-4" data-name="Group 57">
            <path id="Union_4-4" data-name="Union 4" d="M68.3,937.184a1.2,1.2,0,0,1,.367-1.266,11.058,11.058,0,0,1,1.166-1.043c33.731-22.5,69.836-43.834,82.511-85.073q1.062-3.294,2.165-6.579a20.613,20.613,0,0,1,1.983-4.082c3.307-5.157,8.166-.041,10,3.464,5.075,8.866,13.649,21.1,23.127,25.431A25.273,25.273,0,0,0,207,869.342a15.169,15.169,0,0,0,6.02-2.292,42.667,42.667,0,0,0,9.559-5.931A115.634,115.634,0,0,0,243.9,838.861a49.512,49.512,0,0,1,15.322-15.195c.694-.3,1.1-.682.63-1.517-5.518-10.3.752-21.774,6.247-30.668.671-1.057,1.219-1.044,1.884-.041a3.294,3.294,0,0,1,.409.9,19.873,19.873,0,0,0,10.6,11.97c7.343,4.31,16.477,5.021,23.1,10.627a9.591,9.591,0,0,1,3.413,8.843,40.5,40.5,0,0,1-13.3,25.609,3.09,3.09,0,0,1-3.827.736,52.453,52.453,0,0,0-25.886-4.276,27.149,27.149,0,0,0-16.331,13.415c-3.395,4.877-6.458,9.987-10.08,14.711a69.758,69.758,0,0,1-12.9,13.134c-.458.349-1.292.479-1.075,1.359-.7-.211-1.186-.094-1.155.753-.558-.293-.966.111-1.38.378a33.717,33.717,0,0,1-36.327-.193,91.67,91.67,0,0,1-12.3-11.171,45.035,45.035,0,0,0-7.992-6.77c-3.079-1.967-4.45-1.512-5.908,1.883s-2.369,7-3.5,10.5c-8.061,27.945-33.924,42.434-60.9,47.748a89.2,89.2,0,0,0-20.566,5.517,5.36,5.36,0,0,1-2.444.719C69.122,937.832,68.515,937.832,68.3,937.184ZM1.716,861.756c-1.511-30.809,12.8-59.039,33.917-80.726a27.57,27.57,0,0,1,3.307-2.836A4,4,0,0,1,41.1,777.3c2.8-.157,1.75,2.182.444,3.447-16.128,18.554-30.8,41.512-29.345,67.043.834,20.813,13.923,36.7,35.47,36.707,25.816-.356,50.325-19.289,64.639-39.518,5.874-8.5,11.852-20.846,4.789-30.365-4.73-6.119-14.413-9.164-21.692-11.024a47.047,47.047,0,0,1-13.334-4.859c-10.7-6-11.252-19.108-8.6-29.788a139.545,139.545,0,0,1,4.918-16.916,62.058,62.058,0,0,1,10.913-18.514c8.783-10.5,20.415-21.417,33.988-24.853a8.166,8.166,0,0,1,9.805,3.57c5.091,9.023-1.628,24.994-2.567,34.9-.082.734-.152,1.837-1.085,1.907-1.167.088-1.167-1.079-1.307-1.878a65.717,65.717,0,0,1-.683-8.073,11.728,11.728,0,0,0-1.1-4.783,3.768,3.768,0,0,0-4.508-2.334,31.84,31.84,0,0,0-11.422,4.824A85.038,85.038,0,0,0,83.813,761a7.478,7.478,0,0,0,2.764,11.427,31.9,31.9,0,0,0,9.6,2.986,105.942,105.942,0,0,1,16.116,3.984c16.588,6.095,17.434,21.936,15.678,37.166-.449,4.129-.927,8.259-1.329,12.395A97.091,97.091,0,0,1,72.976,908.11a59.26,59.26,0,0,1-25.134,6.032C21.733,914.143,2.424,893.087,1.716,861.756Zm219.225,27.465.049.027-.047.023C220.943,889.254,220.942,889.238,220.941,889.221Zm1.155-.753.013,0v.047C222.105,888.5,222.1,888.485,222.1,888.468ZM196.94,839.886q-3.9-11.6-6.943-15.03h-.95L187.619,826h-.857q-2.854,0-6.373-5.517v-.572q2.947-6.086,4.66-7.23h.571q9.512,0,14.174,21.688v.286h.285q4.089-25.777,11.605-25.779,2.568,0,5.517,5.233a2.841,2.841,0,0,1,.285,1.426v.571q-1.048,5.234-2.283,5.232-.381,0-3.8-3.519l-1.427-.572q-3.806,0-7.515,22.354-2.473,6.946-3.8,6.944Q197.8,846.544,196.94,839.886Zm3.206-44.7q12.33-5.328,40.733-16.856,11.43-4.4,31.74-11.746l-1.094,6.056q-9.729,3.432-31.74,11.744-14.773,5.762-40.846,16.845Zm4.751-27.833a1.2,1.2,0,0,1,.367-1.266,10.98,10.98,0,0,1,1.166-1.044c33.731-22.5,69.836-43.834,82.511-85.072q1.061-3.294,2.164-6.58a20.7,20.7,0,0,1,1.983-4.081c3.308-5.157,8.167-.041,10,3.463,5.075,8.867,13.649,21.1,23.127,25.432a25.272,25.272,0,0,0,17.388,1.3,15.145,15.145,0,0,0,6.019-2.291,42.67,42.67,0,0,0,9.56-5.931,115.641,115.641,0,0,0,21.314-22.259,49.5,49.5,0,0,1,15.323-15.195c.694-.3,1.1-.681.629-1.516-5.517-10.3.753-21.775,6.247-30.669.671-1.056,1.219-1.044,1.885-.04a3.279,3.279,0,0,1,.408.9,19.874,19.874,0,0,0,10.6,11.969c7.344,4.31,16.478,5.022,23.1,10.627a9.593,9.593,0,0,1,3.413,8.843,40.5,40.5,0,0,1-13.306,25.61,3.091,3.091,0,0,1-3.826.736,52.443,52.443,0,0,0-25.886-4.276,27.152,27.152,0,0,0-16.332,13.414c-3.395,4.878-6.457,9.987-10.079,14.711a69.74,69.74,0,0,1-12.9,13.135c-.458.349-1.291.479-1.075,1.359-.7-.212-1.186-.094-1.155.753-.558-.293-.966.11-1.38.377a33.719,33.719,0,0,1-36.328-.193,91.608,91.608,0,0,1-12.3-11.171,45.041,45.041,0,0,0-7.992-6.771c-3.08-1.966-4.451-1.511-5.909,1.884s-2.368,7-3.5,10.5c-8.061,27.945-33.924,42.434-60.9,47.748a89.2,89.2,0,0,0-20.566,5.517,5.372,5.372,0,0,1-2.444.719C205.718,768,205.112,768,204.9,767.353Zm-66.584-75.428c-1.51-30.809,12.8-59.039,33.918-80.725a27.506,27.506,0,0,1,3.308-2.836,4,4,0,0,1,2.164-.891c2.8-.157,1.75,2.182.443,3.447-16.128,18.554-30.8,41.512-29.345,67.042.834,20.813,13.923,36.7,35.469,36.707,25.816-.355,50.326-19.289,64.64-39.517,5.873-8.5,11.852-20.846,4.789-30.366-4.73-6.118-14.413-9.163-21.693-11.024a47.053,47.053,0,0,1-13.334-4.858c-10.7-6-11.251-19.109-8.6-29.789a139.527,139.527,0,0,1,4.917-16.915A62.075,62.075,0,0,1,225.9,563.685c8.784-10.5,20.415-21.417,33.988-24.854a8.165,8.165,0,0,1,9.8,3.57c5.092,9.023-1.627,24.993-2.567,34.9-.082.734-.151,1.837-1.085,1.907-1.166.087-1.166-1.079-1.307-1.878a65.9,65.9,0,0,1-.682-8.074,11.738,11.738,0,0,0-1.1-4.782,3.769,3.769,0,0,0-4.509-2.334,31.837,31.837,0,0,0-11.421,4.824,85.014,85.014,0,0,0-26.614,24.2,7.478,7.478,0,0,0,2.764,11.428,31.888,31.888,0,0,0,9.6,2.985,106.139,106.139,0,0,1,16.115,3.984c16.589,6.1,17.435,21.937,15.679,37.166-.449,4.13-.928,8.26-1.33,12.395a97.09,97.09,0,0,1-53.662,79.151,59.259,59.259,0,0,1-25.134,6.032C158.331,744.311,139.021,723.254,138.313,691.924Zm219.226,27.465.049.027-.047.023C357.54,719.422,357.539,719.406,357.539,719.389Zm1.155-.753.013,0v.047C358.7,718.67,358.7,718.653,358.694,718.636ZM173.225,687.962q-4.506,0-6.3-5.941a29.462,29.462,0,0,1-.361-3.963V673.2q0-14.4,10.805-32.954h.72q-7.023,22.33-7.023,28.452,0,9.365,4.681,9.365,3.421,0,7.384-8.284h.36l.54.722q-3.243,17.466-9.365,17.466ZM280.34,654.524l-1.392-.073q-4.891-1.143-4.441-9.752l.047-.886q.4-7.594,7.871-24.209a48.559,48.559,0,0,0,.964-6.3l.106-2.025q.617-11.769-10.911-24.305l.021-.38a27.794,27.794,0,0,1,3.73-5.77l.38.021q11.522,10.122,10.651,26.831l-.093,1.771q-.452,8.61-8.242,26.475l-.831,3.764q-.378,7.214,3.417,7.414,2.53.134,5.781-6.17l.887.046q-3.081,13.553-7.772,13.551C280.455,654.529,280.4,654.527,280.34,654.524ZM192.758,600.3c3.528-5.788,8.935-8.514,8.035-11.249a3.013,3.013,0,0,0-1.607-1.606c-3.819-1.958-9.811,2.743-12.857,4.82-10.885,7.419-25.546,9.542-35.355,8.035-8.723-1.34-19.241-6.413-19.284-6.428a24.108,24.108,0,0,1,0,8.035c-.454,2.586-1.607,6.425-1.607,6.428a51.281,51.281,0,0,0-7.656-19.668,5.307,5.307,0,0,1,.031-5.856l.032-.049a2.041,2.041,0,0,1,2.85-.565,59.51,59.51,0,0,0,9.563,5.247,53.774,53.774,0,0,0,20.892,4.82c11.4.108,20.851-4.208,25.713-6.428,7.921-3.621,12.932-8.112,19.283-6.428.984.26,3.576.985,4.821,3.214,1.964,3.515-.818,8.286-1.607,9.642-2.243,3.845-4.368,4.332-8.035,8.035a31.341,31.341,0,0,0-6.428,9.643A23.637,23.637,0,0,1,192.758,600.3ZM68.3,585.247a1.2,1.2,0,0,1,.367-1.266,11.065,11.065,0,0,1,1.166-1.043c33.731-22.5,69.836-43.834,82.511-85.072q1.062-3.294,2.165-6.579a20.613,20.613,0,0,1,1.983-4.082c3.307-5.157,8.166-.041,10,3.464,5.075,8.866,13.649,21.1,23.127,25.431A25.267,25.267,0,0,0,207,517.4a15.154,15.154,0,0,0,6.02-2.291,42.666,42.666,0,0,0,9.559-5.931A115.635,115.635,0,0,0,243.9,486.923a49.513,49.513,0,0,1,15.322-15.195c.694-.3,1.1-.682.63-1.517-5.518-10.3.752-21.774,6.247-30.668.671-1.057,1.219-1.045,1.884-.041a3.294,3.294,0,0,1,.409.9,19.873,19.873,0,0,0,10.6,11.97c7.343,4.31,16.477,5.021,23.1,10.626a9.593,9.593,0,0,1,3.413,8.843,40.5,40.5,0,0,1-13.3,25.61,3.091,3.091,0,0,1-3.827.736,52.452,52.452,0,0,0-25.886-4.276,27.149,27.149,0,0,0-16.331,13.415c-3.395,4.877-6.458,9.986-10.08,14.711a69.735,69.735,0,0,1-12.9,13.135c-.458.349-1.292.479-1.075,1.359-.7-.211-1.186-.094-1.155.753-.558-.293-.966.11-1.38.377a33.717,33.717,0,0,1-36.327-.193,91.667,91.667,0,0,1-12.3-11.171,45.042,45.042,0,0,0-7.992-6.771c-3.079-1.966-4.45-1.511-5.908,1.884s-2.369,7-3.5,10.5c-8.061,27.945-33.924,42.434-60.9,47.748a89.2,89.2,0,0,0-20.566,5.517,5.372,5.372,0,0,1-2.444.719C69.122,585.894,68.515,585.894,68.3,585.247ZM1.716,509.819c-1.511-30.809,12.8-59.039,33.917-80.725a27.579,27.579,0,0,1,3.307-2.836,4,4,0,0,1,2.164-.891c2.8-.158,1.75,2.182.444,3.447-16.128,18.554-30.8,41.512-29.345,67.043.834,20.813,13.923,36.7,35.47,36.707,25.816-.356,50.325-19.289,64.639-39.517,5.874-8.5,11.852-20.846,4.789-30.365-4.73-6.119-14.413-9.164-21.692-11.024A47.074,47.074,0,0,1,82.075,446.8c-10.7-6-11.252-19.108-8.6-29.788a139.546,139.546,0,0,1,4.918-16.915,62.057,62.057,0,0,1,10.913-18.514c8.783-10.5,20.415-21.417,33.988-24.854a8.166,8.166,0,0,1,9.805,3.57c5.091,9.023-1.628,24.994-2.567,34.9-.082.734-.152,1.837-1.085,1.907-1.167.087-1.167-1.079-1.307-1.878a65.73,65.73,0,0,1-.683-8.074,11.724,11.724,0,0,0-1.1-4.782,3.768,3.768,0,0,0-4.508-2.334,31.841,31.841,0,0,0-11.422,4.824,85.045,85.045,0,0,0-26.614,24.2,7.478,7.478,0,0,0,2.764,11.428,31.9,31.9,0,0,0,9.6,2.986,106.036,106.036,0,0,1,16.116,3.983c16.588,6.1,17.434,21.937,15.678,37.166-.449,4.129-.927,8.259-1.329,12.394a97.091,97.091,0,0,1-53.662,79.151A59.26,59.26,0,0,1,47.842,562.2C21.733,562.2,2.424,541.149,1.716,509.819Zm219.225,27.465.049.027-.047.023C220.943,537.316,220.942,537.3,220.941,537.283Zm1.155-.753.013,0v.047C222.105,536.564,222.1,536.547,222.1,536.53ZM196.94,487.949q-3.9-11.6-6.943-15.03h-.95l-1.426,1.142h-.857q-2.854,0-6.373-5.517v-.572q2.947-6.086,4.66-7.23h.571q9.512,0,14.174,21.688v.286h.285q4.089-25.778,11.605-25.779,2.568,0,5.517,5.233a2.838,2.838,0,0,1,.285,1.426v.571Q216.44,469.4,215.2,469.4q-.381,0-3.8-3.519l-1.427-.572q-3.806,0-7.515,22.354-2.473,6.946-3.8,6.944Q197.8,494.607,196.94,487.949Zm3.206-44.7q12.33-5.328,40.733-16.856,11.43-4.4,31.74-11.746l-1.094,6.056q-9.729,3.432-31.74,11.744-14.773,5.76-40.846,16.845ZM204.9,412.2a1.2,1.2,0,0,1,.367-1.265,10.973,10.973,0,0,1,1.166-1.044c33.731-22.5,69.836-43.835,82.511-85.073q1.061-3.294,2.164-6.579a20.681,20.681,0,0,1,1.983-4.082c3.308-5.157,8.167-.041,10,3.463,5.075,8.867,13.649,21.1,23.127,25.431a25.272,25.272,0,0,0,17.388,1.306,15.159,15.159,0,0,0,6.019-2.291,42.708,42.708,0,0,0,9.56-5.932,115.661,115.661,0,0,0,21.314-22.258,49.5,49.5,0,0,1,15.323-15.195c.694-.3,1.1-.682.629-1.516-5.517-10.3.753-21.775,6.247-30.669.671-1.056,1.219-1.044,1.885-.04a3.274,3.274,0,0,1,.408.9,19.876,19.876,0,0,0,10.6,11.97c7.344,4.31,16.478,5.022,23.1,10.627a9.591,9.591,0,0,1,3.413,8.843,40.5,40.5,0,0,1-13.306,25.61,3.089,3.089,0,0,1-3.826.735,52.462,52.462,0,0,0-25.886-4.276,27.15,27.15,0,0,0-16.332,13.415c-3.395,4.878-6.457,9.987-10.079,14.711a69.735,69.735,0,0,1-12.9,13.134c-.458.349-1.291.479-1.074,1.36-.7-.212-1.186-.094-1.155.752-.558-.293-.966.111-1.38.378a33.721,33.721,0,0,1-36.328-.193,91.726,91.726,0,0,1-12.3-11.171,45.04,45.04,0,0,0-7.992-6.771c-3.08-1.966-4.451-1.512-5.909,1.884s-2.368,7-3.5,10.5c-8.061,27.945-33.924,42.434-60.9,47.748a89.244,89.244,0,0,0-20.566,5.518,5.383,5.383,0,0,1-2.444.719C205.718,412.847,205.112,412.847,204.9,412.2Zm-66.584-75.428c-1.51-30.808,12.8-59.039,33.918-80.725a27.58,27.58,0,0,1,3.308-2.835,3.983,3.983,0,0,1,2.164-.891c2.8-.158,1.75,2.181.443,3.446-16.128,18.554-30.8,41.513-29.345,67.043.834,20.813,13.923,36.7,35.469,36.707,25.816-.356,50.326-19.289,64.64-39.517,5.873-8.5,11.852-20.847,4.789-30.366-4.73-6.118-14.413-9.164-21.693-11.024a47.057,47.057,0,0,1-13.334-4.859c-10.7-6-11.251-19.108-8.6-29.788a139.542,139.542,0,0,1,4.917-16.916A62.06,62.06,0,0,1,225.9,208.534c8.784-10.5,20.415-21.418,33.988-24.854a8.165,8.165,0,0,1,9.8,3.569c5.092,9.023-1.627,24.994-2.567,34.9-.082.734-.151,1.837-1.085,1.907-1.166.088-1.166-1.079-1.307-1.878a65.889,65.889,0,0,1-.682-8.073,11.735,11.735,0,0,0-1.1-4.782,3.769,3.769,0,0,0-4.509-2.335,31.852,31.852,0,0,0-11.421,4.824,85.029,85.029,0,0,0-26.614,24.2,7.477,7.477,0,0,0,2.764,11.427,31.889,31.889,0,0,0,9.6,2.986,106.031,106.031,0,0,1,16.115,3.984c16.589,6.095,17.435,21.937,15.679,37.165-.449,4.13-.928,8.259-1.33,12.395a97.09,97.09,0,0,1-53.662,79.151,59.262,59.262,0,0,1-25.134,6.033C158.33,389.159,139.021,368.1,138.313,336.772Zm219.226,27.465.049.027-.047.022C357.54,364.27,357.539,364.253,357.539,364.237Zm1.155-.752.013,0v.047Q358.7,363.509,358.694,363.484Zm-185.469-27.46q-4.506,0-6.3-5.941a29.461,29.461,0,0,1-.361-3.963v-4.862q0-14.4,10.805-32.955h.72q-7.023,22.332-7.023,28.453,0,9.365,4.681,9.365,3.421,0,7.384-8.285h.36l.54.722q-3.243,17.466-9.365,17.466ZM280.34,300.979l-1.392-.073q-4.891-1.143-4.441-9.752l.047-.886q.4-7.594,7.871-24.209a48.573,48.573,0,0,0,.964-6.3l.106-2.026q.617-11.769-10.911-24.305l.021-.379a27.767,27.767,0,0,1,3.73-5.77l.38.02q11.522,10.122,10.651,26.831l-.093,1.771q-.452,8.61-8.242,26.475l-.831,3.765q-.378,7.213,3.417,7.414,2.53.132,5.781-6.171l.887.047q-3.081,13.551-7.772,13.55C280.455,300.983,280.4,300.982,280.34,300.979Zm-89.188-52.621c3.527-5.788,8.935-8.514,8.035-11.249a3.017,3.017,0,0,0-1.607-1.607c-3.818-1.958-9.811,2.743-12.856,4.82-10.885,7.419-25.547,9.541-35.355,8.035-8.723-1.34-19.241-6.413-19.284-6.428a24.157,24.157,0,0,1,0,8.035c-.454,2.586-1.607,6.425-1.607,6.428a51.294,51.294,0,0,0-7.656-19.669,5.309,5.309,0,0,1,.031-5.855l.032-.049a2.042,2.042,0,0,1,2.851-.565A59.472,59.472,0,0,0,133.3,235.5a53.763,53.763,0,0,0,20.891,4.82c11.4.108,20.851-4.208,25.713-6.428,7.921-3.621,12.933-8.113,19.284-6.428.984.26,3.575.985,4.821,3.214,1.963,3.515-.818,8.285-1.607,9.642-2.244,3.844-4.368,4.331-8.035,8.035A31.309,31.309,0,0,0,187.938,258,23.61,23.61,0,0,1,191.152,248.358Z" transform="translate(1077.9)" fill="none" stroke="#e7e7e7" stroke-width="1"/>
          </g>
        </g>
      </g>
    </g>
  </g>
</svg>
