<svg xmlns="http://www.w3.org/2000/svg" width="168" height="137.799" viewBox="0 0 168 137.799">
  <g id="mada-logo" transform="translate(-0.001 0.029)">
    <path id="Path_10502" data-name="Path 10502" d="M-898.777,1102.458c12.19-.168,23.763-9.108,30.522-18.66,2.774-4.013,5.6-9.843,2.261-14.338-2.234-2.889-6.806-4.327-10.243-5.206a22.222,22.222,0,0,1-6.3-2.294c-5.051-2.831-5.313-9.023-4.06-14.066a65.926,65.926,0,0,1,2.322-7.987,29.3,29.3,0,0,1,5.153-8.742c4.147-4.957,9.639-10.113,16.049-11.735a3.856,3.856,0,0,1,4.63,1.686c2.4,4.261-.768,11.8-1.212,16.481-.039.347-.072.867-.512.9-.551.041-.551-.51-.617-.887a31.041,31.041,0,0,1-.322-3.812,5.538,5.538,0,0,0-.521-2.258,1.779,1.779,0,0,0-2.129-1.1,15.035,15.035,0,0,0-5.393,2.278,40.15,40.15,0,0,0-12.567,11.427,3.53,3.53,0,0,0-.658,3.015,3.532,3.532,0,0,0,1.963,2.381,15.059,15.059,0,0,0,4.531,1.41,50.09,50.09,0,0,1,7.61,1.882c7.833,2.878,8.232,10.358,7.4,17.549-.212,1.95-.438,3.9-.628,5.853a45.844,45.844,0,0,1-25.339,37.374c-17.9,8.4-33.213-2.636-33.648-21.888-.713-14.548,6.043-27.878,16.016-38.118a13.013,13.013,0,0,1,1.562-1.339,1.887,1.887,0,0,1,1.022-.421c1.322-.074.826,1.03.209,1.628-7.615,8.761-14.542,19.6-13.856,31.657C-915.131,1094.953-908.951,1102.456-898.777,1102.458Z" transform="translate(920.965 -1019.232)" fill="#c2a26d"/>
    <path id="Path_10503" data-name="Path 10503" d="M-502.037,1481.008c-.275-.162-.474.036-.675.166a15.921,15.921,0,0,1-17.153-.091,43.284,43.284,0,0,1-5.808-5.275,21.261,21.261,0,0,0-3.774-3.2c-1.454-.929-2.1-.714-2.79.889s-1.118,3.3-1.653,4.958c-3.806,13.2-16.018,20.037-28.756,22.546a42.117,42.117,0,0,0-9.711,2.605,2.542,2.542,0,0,1-1.154.339c-.237,0-.523,0-.625-.306a.567.567,0,0,1,.173-.6,5.209,5.209,0,0,1,.551-.493c15.928-10.623,32.976-20.7,38.961-40.17q.5-1.556,1.022-3.107a9.76,9.76,0,0,1,.936-1.927c1.562-2.435,3.856-.019,4.721,1.636,2.4,4.186,6.445,9.962,10.92,12.008a11.932,11.932,0,0,0,8.21.617,7.157,7.157,0,0,0,2.842-1.082,20.153,20.153,0,0,0,4.514-2.8,54.6,54.6,0,0,0,10.064-10.51,23.379,23.379,0,0,1,7.235-7.175c.328-.143.518-.322.3-.716-2.605-4.864.355-10.281,2.95-14.482.317-.5.576-.493.89-.019a1.541,1.541,0,0,1,.193.424,9.383,9.383,0,0,0,5,5.652c3.467,2.035,7.781,2.371,10.907,5.018a4.527,4.527,0,0,1,1.611,4.175,19.124,19.124,0,0,1-6.283,12.093,1.459,1.459,0,0,1-1.807.347,24.765,24.765,0,0,0-12.223-2.019,12.821,12.821,0,0,0-7.712,6.335c-1.6,2.3-3.049,4.716-4.759,6.946a32.929,32.929,0,0,1-6.089,6.2c-.22.168-.625.228-.5.666v-.022c-.342-.1-.576-.047-.551.377Z" transform="translate(606.063 -1395.54)" fill="#c2a26d"/>
    <path id="Path_10504" data-name="Path 10504" d="M98.043,1333.828a9.948,9.948,0,0,1-1.146-2.74,39.116,39.116,0,0,1-1.485-6.274,13.87,13.87,0,0,1-.193-2.237c0-1.184,0-2.371-.017-3.556a36.725,36.725,0,0,1,27.743-35.226,24.066,24.066,0,0,1,7.3-.961c.994.047,2,.044,2.994,0a36.586,36.586,0,0,1,34.188,25.873c.16.474.275.959.457,1.424a5.234,5.234,0,0,1,.193,2.754,35.185,35.185,0,1,0-67.428,19.934,19.5,19.5,0,0,1-2.6,1.008Z" transform="translate(-0.595 -1258.081)" fill="#fff"/>
    <path id="Path_10505" data-name="Path 10505" d="M-911.339,2227.789c.43-1.118.851-2.2,1.267-3.3q2.972-7.871,5.941-15.743c.077-.2.146-.41.234-.608a.366.366,0,0,1,.449-.232q1.566.265,3.134.5c.342.052.444.276.474.584.091,1.055.221,2.1.306,3.159.212,2.575.4,5.156.617,7.73s.46,5.148.683,7.712q.211,2.42.4,4.842c.058.784.039.8-.727.8h-2.526c-.416,0-.611-.113-.645-.57-.173-2.421-.375-4.845-.575-7.263-.232-2.754-.474-5.508-.714-8.315-.328.133-.339.4-.421.606q-2.875,7.356-5.751,14.713c-.322.826-.331.826-1.19.826h-2.151c-.768,0-.777,0-1.069-.746q-1.27-3.217-2.529-6.439l-3.371-8.617a.789.789,0,0,0-.336-.507c-.074.623-.165,1.214-.212,1.809-.215,2.7-.4,5.4-.625,8.106-.157,1.928-.358,3.856-.5,5.77-.036.488-.217.642-.683.631-.9-.025-1.809-.017-2.713,0-.4,0-.551-.151-.515-.551q.342-3.531.658-7.067c.152-1.7.276-3.415.427-5.119.226-2.606.468-5.211.694-7.816.1-1.148.173-2.3.259-3.448.055-.749.058-.752.8-.87.826-.133,1.652-.276,2.479-.4.669-.1.68-.1.928.551.532,1.4,1.052,2.8,1.584,4.2q2.688,7.078,5.39,14.151C-911.747,2227.172-911.739,2227.549-911.339,2227.789Z" transform="translate(925.095 -2096.502)" fill="#c2a26d"/>
    <path id="Path_10506" data-name="Path 10506" d="M-410.089,2207.506c1.2.19,2.267.375,3.341.526a.554.554,0,0,1,.449.208.551.551,0,0,1,.1.484v23.189c0,.978,0,.98-.953.983h-8.6a8.442,8.442,0,0,1-1.575-.147,6.024,6.024,0,0,1-4.971-5.832c-.022-1.4-.028-2.807,0-4.209a6.086,6.086,0,0,1,5.866-5.894c1.834-.1,3.677-.017,5.508-.025.807,0,.826,0,.826-.826v-7.386Zm0,17.351v-3.646c0-.435-.146-.614-.595-.608-1.559.02-3.118-.038-4.682.025a2.886,2.886,0,0,0-2.939,2.159,7.848,7.848,0,0,0,0,4.156,2.718,2.718,0,0,0,2.683,2.071q2.333.081,4.682.114c.826,0,.84,0,.845-.807.014-1.154.008-2.309.005-3.463Z" transform="translate(469.103 -2096.164)" fill="#c2a26d"/>
    <path id="Path_10507" data-name="Path 10507" d="M-597.982,2316.239v5.616c0,.68-.019.7-.667.706-3.151,0-6.3.08-9.45-.017a6.041,6.041,0,0,1-4.284-1.827,6.042,6.042,0,0,1-1.712-4.332c.039-1.308,0-2.619,0-3.93a6.084,6.084,0,0,1,5.9-5.966c2.834-.1,5.676,0,8.513-.032a.72.72,0,0,1,.547.14.72.72,0,0,1,.279.49,16.488,16.488,0,0,1,.868,5.878C-598.043,2314.035-597.982,2315.137-597.982,2316.239Zm-3.9-1.7v-3.649c0-.422-.119-.628-.581-.623-1.559.017-3.118-.036-4.682.022a2.886,2.886,0,0,0-2.947,2.143,7.685,7.685,0,0,0,0,4.156,2.575,2.575,0,0,0,2.388,2.059c1.738.112,3.487.1,5.233.153.46.014.595-.184.589-.611-.011-1.224,0-2.441,0-3.655Z" transform="translate(643.041 -2185.825)" fill="#c2a26d"/>
    <path id="Path_10508" data-name="Path 10508" d="M-214,2316.3v5.611c0,.711-.019.727-.738.729-3.085,0-6.169.085-9.251-.02a6.079,6.079,0,0,1-4.345-1.8,6.081,6.081,0,0,1-1.764-4.358c-.044-1.274-.047-2.555,0-3.834a6.169,6.169,0,0,1,6.114-6.076c2.74-.061,5.481-.017,8.224,0,.766,0,.757,0,1,.787a14.819,14.819,0,0,1,.782,5.321C-214.064,2313.864-214,2315.084-214,2316.3Zm-3.8-1.722v-3.547c0-.463-.143-.689-.639-.684-1.586.017-3.176-.047-4.759.025a2.829,2.829,0,0,0-2.939,2.478,9.362,9.362,0,0,0,0,3.529,2.649,2.649,0,0,0,2.443,2.333c1.738.1,3.481.1,5.233.151.474.013.669-.171.661-.656C-217.82,2317.007-217.806,2315.792-217.806,2314.577Z" transform="translate(294.817 -2185.906)" fill="#c2a26d"/>
    <path id="Path_10509" data-name="Path 10509" d="M702.049,2316.859a4.826,4.826,0,0,1,2.892-1.578,4.958,4.958,0,0,1,5.762,4.71c.063,3.492.019,6.988,0,10.482,0,.641-.036.677-.716.669-2.113-.025-1.785.314-1.8-1.746-.019-2.933,0-5.864,0-8.8a2.66,2.66,0,0,0-.826-2.2,2.332,2.332,0,0,0-2.44-.473,2.2,2.2,0,0,0-1.54,1.836,7.59,7.59,0,0,0-.069,1.118v9.64c.022.419-.121.647-.584.623a11.351,11.351,0,0,0-1.308,0c-.507.03-.636-.212-.631-.675.016-1.746,0-3.5,0-5.233,0-1.653.022-3.3,0-4.958a2.437,2.437,0,0,0-4.85-.39,8.632,8.632,0,0,0-.022.936v9.827c0,.276-.11.488-.43.491h-1.683c-.314,0-.438-.188-.441-.482v-.375c0-3.338-.019-6.677,0-10.014a5,5,0,0,1,5.324-5.041A4.529,4.529,0,0,1,702.049,2316.859Z" transform="translate(-542.735 -2193.787)" fill="#fff"/>
    <path id="Path_10510" data-name="Path 10510" d="M106.858,2334.8a7.773,7.773,0,1,1,7.837-7.71,7.773,7.773,0,0,1-7.837,7.71Zm-5.233-7.73a2.119,2.119,0,1,0-.014-.011Z" transform="translate(-3.776 -2197.436)" fill="#fff"/>
    <path id="Path_10511" data-name="Path 10511" d="M292.97,2325.156v-5.232c0-.727.033-.747.716-.769.375,0,.749.017,1.121,0,.476-.028.683.156.666.648-.025.653,0,1.308,0,1.963v7.948a4.277,4.277,0,0,0,.072,1.022,2.367,2.367,0,0,0,2.636,1.87,2.332,2.332,0,0,0,2.143-2.311c.025-3.305,0-6.61,0-9.916,0-1.264-.083-1.231,1.215-1.229,1.487,0,1.35-.088,1.35,1.377v9.541a5,5,0,0,1-3.479,4.809,4.93,4.93,0,0,1-6.439-4.662C292.953,2328.521,292.97,2326.838,292.97,2325.156Z" transform="translate(-179.567 -2197.345)" fill="#fff"/>
    <path id="Path_10512" data-name="Path 10512" d="M-13.951,2274.075v-8.321c0-.779,0-.784-.757-.793-.592,0-1.184-.02-1.776,0-.457.017-.691-.116-.683-.625.041-2.324-.275-1.854,1.752-1.881,2.118-.028,4.236,0,6.357,0,.763,0,.782.017.777.791-.019,2.032.275,1.685-1.63,1.71-1.534.019-1.534,0-1.534,1.512v16.164c.041.463-.124.708-.628.669-.342-.025-.686,0-1.027,0-.826,0-.84,0-.846-.827v-4.114Z" transform="translate(101.706 -2145.949)" fill="#fff"/>
    <path id="Path_10513" data-name="Path 10513" d="M585.628,1809.431c.083,1.206.171,2.412.251,3.619s.146,2.478.231,3.734c.069,1.01.182,1.1,1.176,1.118h1.964c.719,0,.722,0,.865-.755.047-.245.074-.493.113-.738.124-.774.124-.774,1.066-1.223-.08.551-.168,1.06-.223,1.57-.074.708.207,1.077.912,1.127a10.758,10.758,0,0,0,2.236-.094,3.07,3.07,0,0,0,2.785-2.01c.03-.088.085-.165.124-.251a.232.232,0,0,1,.295-.154c.165.049.275.168.2.349-.157.4-.328.807-.493,1.209-.069.168-.207.314-.149.571a3.722,3.722,0,0,0,1.986-.149c.565-.2.724-.73.967-1.2.146-.275.113-.873.5-.766.529.146.149.642.058.948a1.9,1.9,0,0,0,.617,1.873,7.568,7.568,0,0,0,.686-1.889c.069-.207.119-.419.182-.628a.253.253,0,0,1,.358-.184.242.242,0,0,1,.168.292c-.052.305-.127.608-.19.914-.149.713.077,1.1.782,1.154.994.058,1.994.025,2.991.022.454,0,.35-.339.325-.6q-.182-1.862-.377-3.721c-.074-.714-.154-1.424-.231-2.138-.016-.154.019-.347-.058-.46-.661-.942.047-1.44.639-2.088a3.029,3.029,0,0,0,1.19,1.578c.179.248.113.339.055.394a2.563,2.563,0,0,0-.669,2.479c.149.92.124,1.867.242,2.793a5.559,5.559,0,0,1-.372,2.65c-.121.333-.275.51-.664.5-.967-.025-1.928-.019-2.9,0a1.427,1.427,0,0,1-1.319-.743c-.275.237-.275.57-.427.826-.369.677-.73.716-1.165.091-.248-.355-.446-.746-.686-1.154a5.1,5.1,0,0,1-2.38.733c-.424,0-.878.141-1.217-.275-.168-.2-.339-.03-.5.035a9.731,9.731,0,0,1-3.856.474c-.573,0-.884-.388-1.234-.856a1.1,1.1,0,0,1-1.358.876c-.744-.061-1.5,0-2.242-.014-1.22,0-1.432-.2-1.551-1.454q-.16-1.674-.306-3.352c-.085-.995-.1-2-.248-2.98a2.127,2.127,0,0,1,.843-2.05Z" transform="translate(-444.284 -1734.872)" fill="#fff"/>
    <path id="Path_10514" data-name="Path 10514" d="M429.013,2326.013v-4.858a4.682,4.682,0,0,1,2.685-4.374,4.959,4.959,0,0,1,5.148.356c.388.233.435.481.154.826-.118.143-.2.317-.317.462-.254.312-.364.779-.757.915s-.661-.276-1-.405a2.429,2.429,0,0,0-3.407,1.955,7.1,7.1,0,0,0-.025.934v9.345c0,.872,0,.889-.87.881-1.892-.016-1.586.242-1.606-1.545-.017-1.5,0-2.988,0-4.484Z" transform="translate(-302.939 -2194.69)" fill="#fff"/>
    <path id="Path_10515" data-name="Path 10515" d="M607.291,2333.629v-.468c.016-.684,0-.714.7-.8a1.809,1.809,0,0,0,1.52-2.729,7.744,7.744,0,0,0-1.652-2.256,5.281,5.281,0,0,1-1.319-4.6,4.131,4.131,0,0,1,4.343-3.458c.358,0,.5.195.493.531,0,.468-.014.937,0,1.4.014.4-.187.551-.551.59a3.461,3.461,0,0,0-.644.1,1.613,1.613,0,0,0-1.223,1.653,3.709,3.709,0,0,0,.826,2.144c.369.5.8.957,1.168,1.459a5.544,5.544,0,0,1,1.237,3.823,4.132,4.132,0,0,1-4.382,3.828c-.339-.022-.532-.124-.523-.488v-.746Z" transform="translate(-463.983 -2197.508)" fill="#fff"/>
    <path id="Path_10516" data-name="Path 10516" d="M359.944,1847.174a1.122,1.122,0,0,1-1.394.939c-.68-.055-1.377,0-2.057-.014-1.223-.016-1.611-.353-1.823-1.54-.044-.243-.1-.484-.146-.724-.088,0-.185,0-.2.022-.449,1.047-1.237.87-2.088.622-1.523-.443-1.617-.666-.826-2.054a2.719,2.719,0,0,1,1.33-1.253c.372-.157.724-.367,1.1-.523a.617.617,0,0,0,.468-.694c-.044-.55.419-.859.807-1.258.047.551.1,1.1.143,1.633.091,1.088.151,2.179.275,3.261.1.912.347,1.116,1.27,1.143.716.019,1.435,0,2.151,0a.516.516,0,0,0,.611-.529c.033-.308.132-.615.14-.922a1.256,1.256,0,0,1,.994-1.264,3.492,3.492,0,0,1-.124,1.253c-.174,1.03.121,1.443,1.132,1.443a15.23,15.23,0,0,0,3.724-.171,7.933,7.933,0,0,0,2.148-.87,9.643,9.643,0,0,0-2.589-1c-.551-.127-.912.244-1.33.55.044-1.377.884-2.121,2.074-1.892a8.674,8.674,0,0,1,1.837.675c.551.237,1.1.457,1.633.694a8.937,8.937,0,0,0,1.7.463c.149.3-.083.487-.182.693-.328.675-.344.7-1.047.537a2.526,2.526,0,0,0-2.14.407,9.6,9.6,0,0,1-6.373,1.267C360.619,1848.081,360.3,1847.766,359.944,1847.174Zm-5.652-3.958c-.661.8-1.757.826-2.57,1.512a8.787,8.787,0,0,0,2.256.52c.408.053.576-.121.551-.523a4.486,4.486,0,0,0-.242-1.509Z" transform="translate(-232.179 -1763.711)" fill="#fff"/>
    <path id="Path_10517" data-name="Path 10517" d="M543.4,2327.023v-6.82c0-1.008,0-1.019.956-1.016,1.837,0,1.6-.188,1.606,1.578v13.457c0,.333-.121.551-.487.529h-.1c-2.44-.033-1.944.322-1.975-1.84C543.375,2330.948,543.4,2328.984,543.4,2327.023Z" transform="translate(-406.805 -2197.38)" fill="#fff"/>
    <path id="Path_10518" data-name="Path 10518" d="M194.541,1923.985c.355.053.5-.361.887-.363a36.875,36.875,0,0,0,14.636,11.158l.443.19,2.928.953.763.221a13.423,13.423,0,0,0,3.735.63,9.2,9.2,0,0,1-2.079.232,5.24,5.24,0,0,1-.84-.08,4.855,4.855,0,0,1-.826-.227l-.361-.08a4.534,4.534,0,0,1-1.336-.316l-.479-.124a6.494,6.494,0,0,1-1.942-.609l-.452-.16a35.728,35.728,0,0,1-15.586-10.2c-.4-.3-.168-.576-.033-.87a.453.453,0,0,0,.325-.049.461.461,0,0,0,.217-.3Z" transform="translate(-89.713 -1838.866)" fill="#fff"/>
    <path id="Path_10519" data-name="Path 10519" d="M846.359,1823.139c-.132-1.54-.253-2.9-.366-4.258-.094-1.1-.1-2.245-.275-3.344a2.81,2.81,0,0,1,.826-2.4c.055.606.107,1.086.138,1.568q.185,2.84.358,5.676A4.4,4.4,0,0,1,846.359,1823.139Z" transform="translate(-680.776 -1738.73)" fill="#fff"/>
    <path id="Path_10520" data-name="Path 10520" d="M544.38,2262.629a1.185,1.185,0,0,1,1.308,1.345,1.344,1.344,0,1,1-2.686-.07,1.185,1.185,0,0,1,1.378-1.276Z" transform="translate(-406.468 -2146.125)" fill="#fff"/>
    <path id="Path_10521" data-name="Path 10521" d="M431.847,1930.223c-.063.253-.275.413-.394.622-.212.356-.46.347-.76.127-.353-.262-.678-.408-1.016.058-.129.179-.906-.119-1.118-.388s.036-.394.149-.551c.4-.586.4-.584,1.083-.237.207.107.443.344.639.033.3-.477.6-.276.923-.055C431.52,1929.948,431.737,1930.013,431.847,1930.223Z" transform="translate(-302.435 -1844.272)" fill="#fff"/>
    <path id="Path_10522" data-name="Path 10522" d="M352.686,1821.5c.028-.275.24-.427.363-.636.2-.347.446-.375.76-.135s.667.469,1.005-.047c.127-.192.857.083,1.118.38.215.245,0,.391-.124.55-.421.592-.435.608-1.025.275-.331-.185-.6-.327-.865.08a.322.322,0,0,1-.49.066C353.171,1821.883,352.857,1821.792,352.686,1821.5Z" transform="translate(-233.701 -1745.472)" fill="#fff"/>
    <path id="Path_10523" data-name="Path 10523" d="M628.511,1930.926c-.182-.1-.32-.165-.452-.245-.727-.432-.727-.5-.168-1.149.2-.229.361-.305.625-.121.386.275.774.573,1.146-.045.094-.154.275-.06.413.025a2.309,2.309,0,0,1,.749.537c-.044.3-.276.474-.427.708a.372.372,0,0,1-.62.113C629.273,1930.3,628.852,1930.353,628.511,1930.926Z" transform="translate(-483.033 -1844.001)" fill="#fff"/>
  </g>
</svg>
