<svg xmlns="http://www.w3.org/2000/svg" width="73.15" height="60" viewBox="0 0 73.15 60">
  <g id="mada-logo" transform="translate(-0.001 0.028)">
    <path id="Path_10502" data-name="Path 10502" d="M-911.058,1055.455c5.308-.073,10.347-3.966,13.29-8.125,1.208-1.747,2.437-4.286.984-6.243-.973-1.258-2.963-1.884-4.46-2.266a9.686,9.686,0,0,1-2.742-1c-2.2-1.233-2.313-3.929-1.768-6.125a28.728,28.728,0,0,1,1.011-3.478,12.759,12.759,0,0,1,2.244-3.806c1.806-2.159,4.2-4.4,6.988-5.11a1.679,1.679,0,0,1,2.016.734c1.047,1.855-.335,5.139-.528,7.176-.017.151-.031.378-.223.392-.24.018-.24-.222-.269-.386a13.527,13.527,0,0,1-.14-1.66,2.411,2.411,0,0,0-.227-.983.775.775,0,0,0-.927-.48,6.547,6.547,0,0,0-2.348.992,17.484,17.484,0,0,0-5.472,4.975,1.538,1.538,0,0,0-.287,1.313,1.537,1.537,0,0,0,.855,1.036,6.558,6.558,0,0,0,1.973.614,21.831,21.831,0,0,1,3.313.819c3.411,1.253,3.584,4.51,3.223,7.641-.092.849-.191,1.7-.273,2.548a19.961,19.961,0,0,1-11.033,16.273c-7.795,3.658-14.461-1.148-14.651-9.53-.311-6.334,2.631-12.139,6.974-16.6a5.662,5.662,0,0,1,.68-.583.821.821,0,0,1,.445-.183c.576-.032.36.448.091.708-3.316,3.815-6.332,8.535-6.033,13.784C-918.179,1052.187-915.488,1055.453-911.058,1055.455Z" transform="translate(920.719 -1019.232)" fill="#fff"/>
    <path id="Path_10503" data-name="Path 10503" d="M-542.757,1454.734c-.12-.071-.206.015-.294.072a6.932,6.932,0,0,1-7.469-.039,18.856,18.856,0,0,1-2.529-2.3,9.256,9.256,0,0,0-1.643-1.392c-.633-.4-.915-.311-1.215.387s-.487,1.439-.719,2.159c-1.657,5.745-6.975,8.724-12.521,9.817a18.331,18.331,0,0,0-4.228,1.134,1.1,1.1,0,0,1-.5.148c-.1,0-.228,0-.272-.133a.247.247,0,0,1,.076-.26,2.3,2.3,0,0,1,.24-.215c6.935-4.626,14.359-9.012,16.964-17.491q.218-.677.445-1.353a4.238,4.238,0,0,1,.408-.839c.68-1.06,1.679-.009,2.056.712,1.043,1.823,2.806,4.338,4.755,5.229a5.2,5.2,0,0,0,3.575.269,3.121,3.121,0,0,0,1.238-.471,8.775,8.775,0,0,0,1.965-1.22,23.77,23.77,0,0,0,4.382-4.576,10.182,10.182,0,0,1,3.15-3.124c.143-.062.225-.14.129-.312-1.135-2.118.155-4.477,1.284-6.306.138-.217.251-.215.387-.008a.673.673,0,0,1,.084.185,4.087,4.087,0,0,0,2.179,2.461c1.51.886,3.388,1.032,4.749,2.185a1.972,1.972,0,0,1,.7,1.818,8.327,8.327,0,0,1-2.736,5.266.636.636,0,0,1-.787.151,10.785,10.785,0,0,0-5.322-.879,5.583,5.583,0,0,0-3.358,2.758c-.7,1-1.327,2.053-2.072,3.025a14.345,14.345,0,0,1-2.651,2.7c-.1.073-.272.1-.218.29v-.01c-.149-.046-.251-.02-.24.164Z" transform="translate(588.053 -1417.535)" fill="#fff"/>
    <path id="Path_10504" data-name="Path 10504" d="M96.439,1305.034a4.336,4.336,0,0,1-.5-1.193,17.03,17.03,0,0,1-.646-2.732,6.042,6.042,0,0,1-.084-.974c0-.516,0-1.032-.007-1.548a15.991,15.991,0,0,1,12.08-15.338,10.48,10.48,0,0,1,3.177-.419c.433.02.869.019,1.3,0a15.931,15.931,0,0,1,14.886,11.266c.07.206.12.417.2.62a2.279,2.279,0,0,1,.084,1.2,15.32,15.32,0,1,0-29.36,8.68,8.5,8.5,0,0,1-1.133.439Z" transform="translate(-54.008 -1272.069)" fill="#fff"/>
    <path id="Path_10505" data-name="Path 10505" d="M-919.1,2216.553c.187-.487.37-.96.552-1.439q1.294-3.427,2.587-6.855c.034-.089.064-.178.1-.265a.159.159,0,0,1,.2-.1c.454.077.909.149,1.365.219.149.023.193.12.206.254.04.459.1.916.133,1.375.092,1.121.174,2.245.269,3.366s.2,2.241.3,3.358q.092,1.054.174,2.108c.025.342.017.348-.317.35h-1.1c-.181,0-.266-.049-.281-.248-.075-1.054-.163-2.109-.25-3.163-.1-1.2-.206-2.4-.31-3.62-.143.058-.148.173-.184.264l-2.5,6.406c-.14.36-.144.36-.518.36h-.937c-.335,0-.338,0-.465-.325q-.553-1.4-1.1-2.8l-1.468-3.752a.344.344,0,0,0-.146-.221c-.032.271-.072.529-.092.788-.094,1.176-.176,2.353-.272,3.529-.068.839-.156,1.679-.218,2.512-.016.212-.095.279-.3.275-.393-.011-.788-.008-1.181,0-.176,0-.24-.066-.224-.24q.149-1.537.287-3.077c.066-.742.12-1.487.186-2.229.1-1.135.2-2.269.3-3.4.043-.5.076-1,.113-1.5.024-.326.025-.327.348-.379.36-.058.72-.12,1.079-.174.291-.043.3-.042.4.24.232.608.458,1.219.69,1.827q1.171,3.082,2.347,6.162C-919.283,2216.284-919.279,2216.448-919.1,2216.553Z" transform="translate(925.095 -2159.404)" fill="#fff"/>
    <path id="Path_10506" data-name="Path 10506" d="M-416.991,2207.506c.52.083.987.163,1.455.229a.242.242,0,0,1,.2.09.24.24,0,0,1,.044.211v10.1c0,.426,0,.427-.415.428h-3.744a3.674,3.674,0,0,1-.686-.064,2.623,2.623,0,0,1-2.165-2.54c-.01-.611-.012-1.222,0-1.833a2.65,2.65,0,0,1,2.554-2.566c.8-.042,1.6-.008,2.4-.011.351,0,.36,0,.36-.36v-3.217Zm0,7.555v-1.588c0-.189-.064-.267-.259-.265-.679.008-1.357-.017-2.039.01a1.257,1.257,0,0,0-1.28.94,3.416,3.416,0,0,0,0,1.809,1.184,1.184,0,0,0,1.168.9q1.016.035,2.039.049c.36,0,.366,0,.368-.351.006-.5,0-1.005,0-1.508Z" transform="translate(442.688 -2159.042)" fill="#fff"/>
    <path id="Path_10507" data-name="Path 10507" d="M-607.079,2310.708v2.446c0,.3-.008.305-.29.307-1.372,0-2.744.035-4.115-.008a2.63,2.63,0,0,1-1.865-.8,2.63,2.63,0,0,1-.745-1.886c.017-.57,0-1.14,0-1.711a2.649,2.649,0,0,1,2.57-2.6c1.234-.042,2.472,0,3.707-.014a.313.313,0,0,1,.238.061.313.313,0,0,1,.121.213,7.176,7.176,0,0,1,.378,2.559C-607.106,2309.749-607.079,2310.229-607.079,2310.708Zm-1.7-.74v-1.589c0-.184-.052-.274-.253-.272-.679.008-1.358-.015-2.039.01a1.257,1.257,0,0,0-1.283.933,3.347,3.347,0,0,0,0,1.81,1.121,1.121,0,0,0,1.04.9c.757.049,1.518.042,2.279.066.2.006.259-.08.257-.266,0-.533,0-1.063,0-1.592Z" transform="translate(626.7 -2253.94)" fill="#fff"/>
    <path id="Path_10508" data-name="Path 10508" d="M-223.111,2310.779v2.443c0,.31-.008.316-.321.318-1.343,0-2.686.037-4.028-.009a2.647,2.647,0,0,1-1.892-.783,2.647,2.647,0,0,1-.768-1.9c-.019-.555-.02-1.113,0-1.669a2.686,2.686,0,0,1,2.662-2.646c1.193-.027,2.386-.008,3.581,0,.333,0,.33,0,.434.343a6.456,6.456,0,0,1,.341,2.317C-223.137,2309.719-223.111,2310.25-223.111,2310.779Zm-1.656-.749v-1.545c0-.2-.062-.3-.278-.3-.691.007-1.383-.021-2.072.011a1.232,1.232,0,0,0-1.28,1.079,4.076,4.076,0,0,0,0,1.536,1.154,1.154,0,0,0,1.064,1.016c.757.044,1.516.042,2.279.066.206.006.291-.075.288-.286C-224.773,2311.087-224.767,2310.559-224.767,2310.03Z" transform="translate(258.3 -2254.02)" fill="#fff"/>
    <path id="Path_10509" data-name="Path 10509" d="M697.142,2315.931a2.1,2.1,0,0,1,1.259-.687,2.159,2.159,0,0,1,2.509,2.05c.027,1.521.008,3.043,0,4.564,0,.279-.016.3-.312.291-.92-.011-.777.137-.783-.76-.008-1.277,0-2.553,0-3.83a1.157,1.157,0,0,0-.36-.96,1.016,1.016,0,0,0-1.062-.206.959.959,0,0,0-.67.8,3.307,3.307,0,0,0-.03.487v4.2c.01.182-.053.282-.254.271a5.154,5.154,0,0,0-.57,0c-.221.014-.277-.092-.275-.294.007-.761,0-1.522,0-2.278,0-.72.009-1.439,0-2.159a1.061,1.061,0,0,0-2.112-.17,3.774,3.774,0,0,0-.01.408v4.279c0,.12-.048.212-.187.214h-.733c-.137,0-.191-.082-.192-.21v-.163c0-1.453-.008-2.907,0-4.36a2.178,2.178,0,0,1,2.318-2.2A1.973,1.973,0,0,1,697.142,2315.931Z" transform="translate(-627.773 -2262.359)" fill="#fff"/>
    <path id="Path_10510" data-name="Path 10510" d="M102.5,2326.024a3.385,3.385,0,1,1,3.412-3.357,3.384,3.384,0,0,1-3.412,3.357Zm-2.279-3.366a.92.92,0,1,0-.006,0Z" transform="translate(-57.62 -2266.229)" fill="#fff"/>
    <path id="Path_10511" data-name="Path 10511" d="M292.965,2321.766v-2.278c0-.317.014-.325.312-.335.163,0,.326.007.488,0,.207-.012.3.068.29.282-.011.284,0,.57,0,.855v3.461a1.864,1.864,0,0,0,.031.445,1.031,1.031,0,0,0,1.148.814,1.016,1.016,0,0,0,.933-1.006c.011-1.439,0-2.878,0-4.317,0-.551-.036-.536.529-.535.648,0,.588-.038.588.6v4.155a2.177,2.177,0,0,1-1.515,2.093,2.147,2.147,0,0,1-2.8-2.03C292.958,2323.231,292.965,2322.5,292.965,2321.766Z" transform="translate(-243.587 -2266.13)" fill="#fff"/>
    <path id="Path_10512" data-name="Path 10512" d="M-15.767,2267.5v-3.623c0-.339,0-.342-.33-.345-.258,0-.516-.009-.774,0-.2.007-.3-.051-.3-.273.018-1.012-.12-.807.763-.819.922-.012,1.844,0,2.768,0,.332,0,.341.007.338.344-.008.885.12.734-.71.745-.668.009-.668,0-.668.658v7.038c.018.2-.054.308-.273.291-.149-.011-.3,0-.447,0-.36,0-.366,0-.368-.36V2267.5Z" transform="translate(53.978 -2211.73)" fill="#fff"/>
    <path id="Path_10513" data-name="Path 10513" d="M585.137,1809.122c.036.525.074,1.05.109,1.576s.063,1.079.1,1.626c.03.44.079.48.512.487h.855c.313,0,.314,0,.377-.329.02-.107.032-.215.049-.321.054-.337.054-.337.464-.533-.035.24-.073.462-.1.683-.032.308.09.469.4.49a4.665,4.665,0,0,0,.974-.041,1.337,1.337,0,0,0,1.212-.875c.013-.038.037-.072.054-.109a.1.1,0,0,1,.128-.067c.072.021.12.073.089.152-.068.176-.143.351-.215.526-.03.073-.09.137-.065.248a1.623,1.623,0,0,0,.865-.065c.246-.089.315-.318.421-.522.064-.12.049-.38.218-.333.23.064.065.279.025.413a.826.826,0,0,0,.269.815,3.3,3.3,0,0,0,.3-.823c.03-.09.052-.182.079-.274a.111.111,0,0,1,.156-.08.106.106,0,0,1,.073.127c-.023.133-.055.265-.083.4-.065.311.034.48.341.5.433.025.868.011,1.3.009.2,0,.152-.147.142-.262q-.079-.811-.164-1.62c-.032-.311-.067-.62-.1-.931-.007-.067.008-.151-.025-.2-.288-.41.021-.627.278-.909a1.32,1.32,0,0,0,.518.687c.078.108.049.148.024.171a1.116,1.116,0,0,0-.291,1.079c.065.4.054.813.106,1.216a2.42,2.42,0,0,1-.162,1.154c-.053.145-.12.222-.289.217-.421-.011-.839-.008-1.262,0a.622.622,0,0,1-.574-.324c-.12.1-.12.248-.186.359-.161.3-.318.312-.507.04-.108-.155-.194-.325-.3-.5a2.224,2.224,0,0,1-1.036.319c-.185,0-.383.061-.53-.12-.073-.089-.148-.013-.217.016a4.237,4.237,0,0,1-1.679.206c-.25,0-.385-.169-.537-.373a.48.48,0,0,1-.591.382c-.324-.027-.651,0-.976-.006-.531,0-.624-.088-.675-.633q-.07-.729-.133-1.46c-.037-.433-.046-.869-.108-1.3a.926.926,0,0,1,.367-.893Z" transform="translate(-523.593 -1776.673)" fill="#fff"/>
    <path id="Path_10514" data-name="Path 10514" d="M429.012,2320.487v-2.115a2.039,2.039,0,0,1,1.169-1.9,2.159,2.159,0,0,1,2.241.155c.169.1.19.209.067.36-.052.062-.086.138-.138.2-.11.135-.158.339-.33.4s-.288-.12-.435-.176a1.057,1.057,0,0,0-1.483.851,3.088,3.088,0,0,0-.011.407v4.069c0,.38,0,.387-.379.384-.824-.008-.691.105-.7-.673-.007-.651,0-1.3,0-1.952Z" transform="translate(-374.116 -2263.323)" fill="#fff"/>
    <path id="Path_10515" data-name="Path 10515" d="M606.812,2325.548v-.2c.007-.3,0-.311.3-.347a.788.788,0,0,0,.662-1.189,3.37,3.37,0,0,0-.719-.982,2.3,2.3,0,0,1-.574-2,1.8,1.8,0,0,1,1.891-1.506c.156,0,.216.085.215.231,0,.2-.006.408,0,.611.006.175-.082.24-.24.257a1.535,1.535,0,0,0-.281.043.7.7,0,0,0-.532.72,1.614,1.614,0,0,0,.36.933c.161.218.347.417.508.635a2.416,2.416,0,0,1,.538,1.665,1.8,1.8,0,0,1-1.908,1.667c-.148-.01-.231-.054-.228-.212v-.325Z" transform="translate(-544.413 -2266.294)" fill="#fff"/>
    <path id="Path_10516" data-name="Path 10516" d="M354.852,1843.517a.488.488,0,0,1-.607.409c-.3-.024-.6,0-.9-.006-.533-.007-.7-.153-.794-.67-.019-.106-.043-.211-.064-.316-.038,0-.08,0-.085.01-.2.456-.538.379-.909.271-.663-.193-.7-.29-.36-.895a1.186,1.186,0,0,1,.579-.546c.162-.068.315-.159.48-.228a.269.269,0,0,0,.2-.3c-.019-.24.182-.374.351-.548.02.24.042.48.062.711.04.474.066.948.12,1.42.044.4.151.486.553.5.312.008.625,0,.937,0a.224.224,0,0,0,.266-.23c.014-.134.058-.268.061-.4a.547.547,0,0,1,.433-.55,1.52,1.52,0,0,1-.054.545c-.076.449.053.629.493.629a6.624,6.624,0,0,0,1.621-.075,3.446,3.446,0,0,0,.935-.379,4.2,4.2,0,0,0-1.127-.436c-.24-.056-.4.107-.579.24.019-.6.385-.924.9-.824a3.768,3.768,0,0,1,.8.294c.24.1.48.2.711.3a3.882,3.882,0,0,0,.739.2c.065.131-.036.212-.079.3-.143.293-.15.3-.456.234a1.1,1.1,0,0,0-.932.177,4.178,4.178,0,0,1-2.775.552C355.146,1843.912,355.007,1843.775,354.852,1843.517Zm-2.461-1.723c-.288.346-.765.36-1.119.658a3.83,3.83,0,0,0,.982.226c.177.023.251-.052.24-.228a1.953,1.953,0,0,0-.106-.657Z" transform="translate(-299.22 -1807.192)" fill="#fff"/>
    <path id="Path_10517" data-name="Path 10517" d="M543.386,2322.6v-2.969c0-.439,0-.444.416-.443.8,0,.7-.081.7.688v5.859c0,.146-.053.24-.212.23h-.044c-1.062-.014-.847.14-.86-.8C543.375,2324.305,543.386,2323.45,543.386,2322.6Z" transform="translate(-483.909 -2266.163)" fill="#fff"/>
    <path id="Path_10518" data-name="Path 10518" d="M194.128,1923.78c.155.023.217-.157.386-.158a16.053,16.053,0,0,0,6.373,4.858l.193.083,1.275.415.332.1a5.841,5.841,0,0,0,1.626.274,4.014,4.014,0,0,1-.905.1,2.326,2.326,0,0,1-.366-.035,2.145,2.145,0,0,1-.36-.1l-.157-.035a1.966,1.966,0,0,1-.582-.138l-.209-.054a2.831,2.831,0,0,1-.845-.265l-.2-.069a15.561,15.561,0,0,1-6.787-4.443c-.173-.131-.073-.251-.014-.379a.2.2,0,0,0,.142-.021.2.2,0,0,0,.095-.131Z" transform="translate(-148.483 -1886.734)" fill="#fff"/>
    <path id="Path_10519" data-name="Path 10519" d="M845.982,1817.492c-.058-.67-.11-1.263-.16-1.854-.041-.48-.044-.978-.12-1.456a1.225,1.225,0,0,1,.36-1.045c.024.264.047.473.06.683q.08,1.237.156,2.472a1.919,1.919,0,0,1-.3,1.2Z" transform="translate(-773.884 -1780.755)" fill="#fff"/>
    <path id="Path_10520" data-name="Path 10520" d="M543.6,2262.62a.516.516,0,0,1,.57.586.585.585,0,1,1-1.169-.03.516.516,0,0,1,.6-.556Z" transform="translate(-483.55 -2211.907)" fill="#fff"/>
    <path id="Path_10521" data-name="Path 10521" d="M429.944,1929.868c-.028.111-.12.18-.172.271-.092.155-.2.151-.331.055-.154-.114-.3-.177-.443.025-.056.078-.395-.052-.487-.169s.016-.172.065-.24c.175-.255.176-.254.471-.1.09.047.193.15.278.015.131-.208.263-.12.4-.024C429.8,1929.748,429.9,1929.777,429.944,1929.868Z" transform="translate(-373.595 -1892.46)" fill="#fff"/>
    <path id="Path_10522" data-name="Path 10522" d="M352.686,1820.979c.012-.12.1-.186.158-.277.089-.151.194-.163.331-.058s.29.2.438-.021c.055-.084.373.036.487.165.094.107,0,.171-.054.24-.183.258-.189.265-.446.12-.144-.081-.261-.143-.377.035a.14.14,0,0,1-.214.029C352.9,1821.145,352.76,1821.1,352.686,1820.979Z" transform="translate(-300.877 -1787.89)" fill="#fff"/>
    <path id="Path_10523" data-name="Path 10523" d="M627.935,1930c-.079-.042-.139-.072-.2-.107-.317-.188-.317-.217-.073-.5.085-.1.157-.133.272-.053.168.12.337.249.5-.019.041-.067.12-.027.18.011a1,1,0,0,1,.326.234c-.019.129-.12.206-.186.308a.162.162,0,0,1-.27.049C628.267,1929.729,628.083,1929.75,627.935,1930Z" transform="translate(-564.59 -1892.167)" fill="#fff"/>
  </g>
</svg>
